<svg width="208" height="94" viewBox="0 0 208 94" fill="none" xmlns="http://www.w3.org/2000/svg">
<path d="M13.6291 39.4C13.6291 44.6243 14.7194 49.3044 16.9 53.4403C19.1534 57.5037 22.2426 60.6963 26.1678 63.0182C30.093 65.3401 34.5633 66.5011 39.5788 66.5011C44.667 66.5011 49.1374 65.3401 52.9898 63.0182C56.915 60.6963 59.9679 57.5037 62.1486 53.4403C64.4019 49.3044 65.5286 44.6243 65.5286 39.4C65.5286 34.1757 64.4383 29.5319 62.2576 25.4685C60.077 21.3326 57.024 18.1037 53.0989 15.7818C49.2464 13.4598 44.7397 12.2989 39.5788 12.2989C34.5633 12.2989 30.093 13.4598 26.1678 15.7818C22.2426 18.1037 19.1534 21.3326 16.9 25.4685C14.7194 29.5319 13.6291 34.1757 13.6291 39.4ZM0 39.4C0 33.6678 0.981293 28.4072 2.94388 23.6182C4.90647 18.8293 7.66863 14.6934 11.2304 11.2105C14.8648 7.65506 19.0807 4.89779 23.8781 2.93867C28.7483 0.979556 33.9818 0 39.5788 0C45.3212 0 50.5911 0.979556 55.3885 2.93867C60.186 4.89779 64.3656 7.65506 67.9273 11.2105C71.5617 14.6934 74.3602 18.8293 76.3228 23.6182C78.2854 28.4072 79.2667 33.6678 79.2667 39.4C79.2667 45.0597 78.2854 50.3203 76.3228 55.1818C74.3602 60.0433 71.5981 64.2517 68.0363 67.8072C64.4746 71.3626 60.2587 74.1562 55.3885 76.1878C50.5911 78.147 45.3212 79.1265 39.5788 79.1265C33.9091 79.1265 28.6392 78.147 23.7691 76.1878C18.899 74.1562 14.6831 71.3626 11.1213 67.8072C7.63228 64.2517 4.90647 60.0433 2.94388 55.1818C0.981293 50.3203 0 45.0597 0 39.4Z" fill="url(#paint0_linear_346_3234)"/>
<path d="M72.3401 72.6756H60.2982V93.4721H56.0229V68.84H76.5797V93.4721H72.3401V72.6756Z" fill="url(#paint1_linear_346_3234)"/>
<path d="M82.2196 68.84H86.4236V93.4721H82.2196V68.84ZM84.7135 72.4996V68.84H89.7369C91.542 68.84 93.1096 69.1567 94.4397 69.7901C95.7935 70.4 96.8386 71.2797 97.5749 72.4292C98.3112 73.5553 98.6793 74.9042 98.6793 76.476C98.6793 78.0477 98.3112 79.4084 97.5749 80.5579C96.8386 81.7074 95.7935 82.5988 94.4397 83.2322C93.1096 83.8421 91.542 84.1471 89.7369 84.1471H84.7135V80.4875H89.7369C91.1858 80.4875 92.3496 80.1473 93.2284 79.467C94.1072 78.7867 94.5466 77.7897 94.5466 76.476C94.5466 75.1622 94.1072 74.177 93.2284 73.5201C92.3496 72.8398 91.1858 72.4996 89.7369 72.4996H84.7135Z" fill="url(#paint2_linear_346_3234)"/>
<path d="M105.845 81.1561C105.845 82.8451 106.201 84.3582 106.914 85.6954C107.65 87.0091 108.659 88.0413 109.942 88.792C111.224 89.5427 112.685 89.9181 114.324 89.9181C115.987 89.9181 117.447 89.5427 118.706 88.792C119.989 88.0413 120.986 87.0091 121.699 85.6954C122.435 84.3582 122.803 82.8451 122.803 81.1561C122.803 79.467 122.447 77.9656 121.734 76.6519C121.022 75.3147 120.024 74.2708 118.742 73.5201C117.483 72.7694 116.01 72.3941 114.324 72.3941C112.685 72.3941 111.224 72.7694 109.942 73.5201C108.659 74.2708 107.65 75.3147 106.914 76.6519C106.201 77.9656 105.845 79.467 105.845 81.1561ZM101.391 81.1561C101.391 79.3028 101.712 77.602 102.353 76.0537C102.995 74.5054 103.897 73.1682 105.061 72.0422C106.249 70.8927 107.626 70.0012 109.194 69.3678C110.785 68.7344 112.495 68.4177 114.324 68.4177C116.2 68.4177 117.922 68.7344 119.49 69.3678C121.058 70.0012 122.423 70.8927 123.587 72.0422C124.775 73.1682 125.689 74.5054 126.33 76.0537C126.972 77.602 127.292 79.3028 127.292 81.1561C127.292 82.9859 126.972 84.6867 126.33 86.2584C125.689 87.8302 124.786 89.1908 123.623 90.3403C122.459 91.4898 121.081 92.393 119.49 93.0499C117.922 93.6833 116.2 94 114.324 94C112.471 94 110.749 93.6833 109.158 93.0499C107.567 92.393 106.189 91.4898 105.025 90.3403C103.885 89.1908 102.995 87.8302 102.353 86.2584C101.712 84.6867 101.391 82.9859 101.391 81.1561Z" fill="url(#paint3_linear_346_3234)"/>
<path d="M133.981 93.4721V89.8125H146.558V93.4721H133.981ZM133.981 72.4996V68.84H146.558V72.4996H133.981ZM133.981 82.071V78.4817H145.845V82.071H133.981ZM131.381 68.84H135.513V93.4721H131.381V68.84Z" fill="url(#paint4_linear_346_3234)"/>
<path d="M151.734 68.84H156.045V93.4721H151.734V68.84ZM165.308 68.84H170.367L159.857 80.3819L170.901 93.4721H165.735L154.762 80.4875L165.308 68.84Z" fill="url(#paint5_linear_346_3234)"/>
<path d="M172.377 72.6756V68.84H189.763V72.6756H183.172V93.4721H178.932V72.6756H172.377Z" fill="url(#paint6_linear_346_3234)"/>
<path d="M195.424 93.4721V89.8125H208V93.4721H195.424ZM195.424 72.4996V68.84H208V72.4996H195.424ZM195.424 82.071V78.4817H207.288V82.071H195.424ZM192.823 68.84H196.956V93.4721H192.823V68.84Z" fill="url(#paint7_linear_346_3234)"/>
<defs>
<linearGradient id="paint0_linear_346_3234" x1="39.6333" y1="1.08153e-09" x2="39.6152" y2="62.9457" gradientUnits="userSpaceOnUse">
<stop stop-color="white"/>
<stop offset="1" stop-color="#151919"/>
</linearGradient>
<linearGradient id="paint1_linear_346_3234" x1="132.146" y1="60.0428" x2="132.146" y2="90.5397" gradientUnits="userSpaceOnUse">
<stop stop-color="#1E9F9D"/>
<stop offset="1" stop-color="#151919"/>
</linearGradient>
<linearGradient id="paint2_linear_346_3234" x1="132.146" y1="60.0428" x2="132.146" y2="90.5397" gradientUnits="userSpaceOnUse">
<stop stop-color="#1E9F9D"/>
<stop offset="1" stop-color="#151919"/>
</linearGradient>
<linearGradient id="paint3_linear_346_3234" x1="132.146" y1="60.0428" x2="132.146" y2="90.5397" gradientUnits="userSpaceOnUse">
<stop stop-color="#1E9F9D"/>
<stop offset="1" stop-color="#151919"/>
</linearGradient>
<linearGradient id="paint4_linear_346_3234" x1="132.146" y1="60.0428" x2="132.146" y2="90.5397" gradientUnits="userSpaceOnUse">
<stop stop-color="#1E9F9D"/>
<stop offset="1" stop-color="#151919"/>
</linearGradient>
<linearGradient id="paint5_linear_346_3234" x1="132.146" y1="60.0428" x2="132.146" y2="90.5397" gradientUnits="userSpaceOnUse">
<stop stop-color="#1E9F9D"/>
<stop offset="1" stop-color="#151919"/>
</linearGradient>
<linearGradient id="paint6_linear_346_3234" x1="132.146" y1="60.0428" x2="132.146" y2="90.5397" gradientUnits="userSpaceOnUse">
<stop stop-color="#1E9F9D"/>
<stop offset="1" stop-color="#151919"/>
</linearGradient>
<linearGradient id="paint7_linear_346_3234" x1="132.146" y1="60.0428" x2="132.146" y2="90.5397" gradientUnits="userSpaceOnUse">
<stop stop-color="#1E9F9D"/>
<stop offset="1" stop-color="#151919"/>
</linearGradient>
</defs>
</svg>
