<svg width="349" height="158" viewBox="0 0 349 158" fill="none" xmlns="http://www.w3.org/2000/svg">
<path d="M22.868 66.2256C22.868 75.0069 24.6974 82.8735 28.3563 89.8253C32.1371 96.6552 37.3205 102.022 43.9065 105.924C50.4924 109.827 57.9931 111.779 66.4085 111.779C74.9459 111.779 82.4466 109.827 88.9106 105.924C95.4966 102.022 100.619 96.6552 104.278 89.8253C108.059 82.8735 109.949 75.0069 109.949 66.2256C109.949 57.4443 108.12 49.6387 104.461 42.8088C100.802 35.8569 95.6795 30.4296 89.0935 26.5268C82.6295 22.624 75.0679 20.6726 66.4085 20.6726C57.9931 20.6726 50.4924 22.624 43.9065 26.5268C37.3205 30.4296 32.1371 35.8569 28.3563 42.8088C24.6974 49.6387 22.868 57.4443 22.868 66.2256ZM0 66.2256C0 56.5906 1.64649 47.7483 4.93948 39.6988C8.23246 31.6492 12.867 24.6974 18.8432 18.8432C24.9413 12.867 32.0151 8.23245 40.0646 4.93947C48.2361 1.64649 57.0174 0 66.4085 0C76.0436 0 84.8858 1.64649 92.9353 4.93947C100.985 8.23245 107.998 12.867 113.974 18.8432C120.072 24.6974 124.768 31.6492 128.061 39.6988C131.354 47.7483 133 56.5906 133 66.2256C133 75.7387 131.354 84.5809 128.061 92.7524C124.768 100.924 120.133 107.998 114.157 113.974C108.181 119.95 101.107 124.646 92.9353 128.061C84.8858 131.354 76.0436 133 66.4085 133C56.8955 133 48.0532 131.354 39.8817 128.061C31.7102 124.646 24.6364 119.95 18.6602 113.974C12.8061 107.998 8.23246 100.924 4.93948 92.7524C1.64649 84.5809 0 75.7387 0 66.2256Z" fill="url(#paint0_linear_330_545)"/>
<path d="M121.378 122.157H101.173V157.113H94V115.71H128.492V157.113H121.378V122.157Z" fill="url(#paint1_linear_330_545)"/>
<path d="M137.955 115.71H145.009V157.113H137.955V115.71ZM142.139 121.861V115.71H150.568C153.597 115.71 156.227 116.242 158.459 117.307C160.73 118.332 162.484 119.811 163.719 121.743C164.955 123.635 165.572 125.903 165.572 128.545C165.572 131.187 164.955 133.474 163.719 135.406C162.484 137.338 160.73 138.836 158.459 139.901C156.227 140.926 153.597 141.439 150.568 141.439H142.139V135.287H150.568C152.999 135.287 154.952 134.716 156.426 133.572C157.901 132.429 158.638 130.753 158.638 128.545C158.638 126.337 157.901 124.68 156.426 123.576C154.952 122.433 152.999 121.861 150.568 121.861H142.139Z" fill="url(#paint2_linear_330_545)"/>
<path d="M177.595 136.411C177.595 139.25 178.193 141.794 179.388 144.041C180.624 146.249 182.318 147.984 184.47 149.246C186.622 150.508 189.072 151.139 191.822 151.139C194.612 151.139 197.063 150.508 199.175 149.246C201.327 147.984 203.001 146.249 204.196 144.041C205.432 141.794 206.049 139.25 206.049 136.411C206.049 133.572 205.452 131.049 204.256 128.84C203.06 126.593 201.387 124.838 199.235 123.576C197.122 122.315 194.652 121.684 191.822 121.684C189.072 121.684 186.622 122.315 184.47 123.576C182.318 124.838 180.624 126.593 179.388 128.84C178.193 131.049 177.595 133.572 177.595 136.411ZM170.123 136.411C170.123 133.296 170.661 130.437 171.737 127.835C172.813 125.232 174.327 122.985 176.28 121.092C178.273 119.16 180.584 117.662 183.214 116.597C185.884 115.532 188.754 115 191.822 115C194.97 115 197.86 115.532 200.49 116.597C203.12 117.662 205.412 119.16 207.364 121.092C209.357 122.985 210.891 125.232 211.967 127.835C213.043 130.437 213.581 133.296 213.581 136.411C213.581 139.487 213.043 142.346 211.967 144.988C210.891 147.63 209.377 149.917 207.424 151.849C205.471 153.781 203.16 155.299 200.49 156.403C197.86 157.468 194.97 158 191.822 158C188.714 158 185.824 157.468 183.154 156.403C180.484 155.299 178.173 153.781 176.22 151.849C174.307 149.917 172.813 147.63 171.737 144.988C170.661 142.346 170.123 139.487 170.123 136.411Z" fill="url(#paint3_linear_330_545)"/>
<path d="M224.805 157.113V150.961H245.907V157.113H224.805ZM224.805 121.861V115.71H245.907V121.861H224.805ZM224.805 137.949V131.916H244.711V137.949H224.805ZM220.441 115.71H227.376V157.113H220.441V115.71Z" fill="url(#paint4_linear_330_545)"/>
<path d="M254.592 115.71H261.825V157.113H254.592V115.71ZM277.367 115.71H285.855L268.221 135.11L286.752 157.113H278.084L259.673 135.287L277.367 115.71Z" fill="url(#paint5_linear_330_545)"/>
<path d="M289.228 122.157V115.71H318.399V122.157H307.34V157.113H300.227V122.157H289.228Z" fill="url(#paint6_linear_330_545)"/>
<path d="M327.898 157.113V150.961H349V157.113H327.898ZM327.898 121.861V115.71H349V121.861H327.898ZM327.898 137.949V131.916H347.804V137.949H327.898ZM323.535 115.71H330.469V157.113H323.535V115.71Z" fill="url(#paint7_linear_330_545)"/>
<defs>
<linearGradient id="paint0_linear_330_545" x1="66.5" y1="1.81789e-09" x2="66.4695" y2="105.802" gradientUnits="userSpaceOnUse">
<stop stop-color="white"/>
<stop offset="1" stop-color="#151919"/>
</linearGradient>
<linearGradient id="paint1_linear_330_545" x1="221.725" y1="100.923" x2="221.725" y2="152.184" gradientUnits="userSpaceOnUse">
<stop stop-color="#1E9F9D"/>
<stop offset="1" stop-color="#151919"/>
</linearGradient>
<linearGradient id="paint2_linear_330_545" x1="221.725" y1="100.923" x2="221.725" y2="152.184" gradientUnits="userSpaceOnUse">
<stop stop-color="#1E9F9D"/>
<stop offset="1" stop-color="#151919"/>
</linearGradient>
<linearGradient id="paint3_linear_330_545" x1="221.725" y1="100.923" x2="221.725" y2="152.184" gradientUnits="userSpaceOnUse">
<stop stop-color="#1E9F9D"/>
<stop offset="1" stop-color="#151919"/>
</linearGradient>
<linearGradient id="paint4_linear_330_545" x1="221.725" y1="100.923" x2="221.725" y2="152.184" gradientUnits="userSpaceOnUse">
<stop stop-color="#1E9F9D"/>
<stop offset="1" stop-color="#151919"/>
</linearGradient>
<linearGradient id="paint5_linear_330_545" x1="221.725" y1="100.923" x2="221.725" y2="152.184" gradientUnits="userSpaceOnUse">
<stop stop-color="#1E9F9D"/>
<stop offset="1" stop-color="#151919"/>
</linearGradient>
<linearGradient id="paint6_linear_330_545" x1="221.725" y1="100.923" x2="221.725" y2="152.184" gradientUnits="userSpaceOnUse">
<stop stop-color="#1E9F9D"/>
<stop offset="1" stop-color="#151919"/>
</linearGradient>
<linearGradient id="paint7_linear_330_545" x1="221.725" y1="100.923" x2="221.725" y2="152.184" gradientUnits="userSpaceOnUse">
<stop stop-color="#1E9F9D"/>
<stop offset="1" stop-color="#151919"/>
</linearGradient>
</defs>
</svg>
