<svg width="157" height="64" viewBox="0 0 157 64" fill="none" xmlns="http://www.w3.org/2000/svg">
<path d="M6.18068 12.3077V3.31034H32.6814V12.3077H6.18068ZM6.18068 35.9045V27.1618H31.8347V35.9045H6.18068ZM0 3.31034H9.82135V62.7268H0V3.31034Z" fill="url(#paint0_linear_342_972)"/>
<path d="M45.3113 47.4483L47.174 38.9602H74.6907L76.638 47.4483H45.3113ZM60.8053 20.1167L51.492 41.931L51.3226 44.1379L43.1099 62.7268H31.8493L60.8053 0L89.7613 62.7268H78.5007L70.4573 44.6472L70.2033 42.1857L60.8053 20.1167Z" fill="url(#paint1_linear_342_972)"/>
<path d="M101.289 33.0186C101.289 37.2626 102.192 40.9973 103.999 44.2228C105.805 47.4483 108.26 49.9947 111.365 51.8621C114.525 53.6729 118.053 54.5783 121.948 54.5783C125.899 54.5783 129.399 53.7011 132.447 51.9469C135.495 50.1362 137.894 47.6463 139.643 44.4775C141.393 41.3086 142.268 37.687 142.268 33.6127C142.268 29.5385 141.393 25.8603 139.643 22.5782C137.894 19.2962 135.466 16.6932 132.362 14.7692C129.314 12.8453 125.702 11.8833 121.525 11.8833C117.63 11.8833 114.159 12.7887 111.111 14.5995C108.063 16.4103 105.664 18.9284 103.914 22.1538C102.164 25.3227 101.289 28.9443 101.289 33.0186ZM90.7059 33.0186C90.7059 28.5482 91.4679 24.4456 92.9919 20.7109C94.5723 16.9761 96.7455 13.7507 99.5112 11.0345C102.333 8.26171 105.607 6.1114 109.333 4.58355C113.114 3.0557 117.178 2.29178 121.525 2.29178C125.984 2.29178 130.076 3.0557 133.801 4.58355C137.527 6.1114 140.772 8.26171 143.538 11.0345C146.304 13.7507 148.449 16.9761 149.973 20.7109C151.497 24.4456 152.259 28.5482 152.259 33.0186C152.259 37.4324 151.497 41.5349 149.973 45.3263C148.449 49.1176 146.304 52.3996 143.538 55.1724C140.829 57.9452 137.611 60.1238 133.886 61.7082C130.161 63.2361 126.04 64 121.525 64C117.122 64 113.03 63.2361 109.248 61.7082C105.466 60.1238 102.192 57.9452 99.4266 55.1724C96.6608 52.3996 94.5159 49.1176 92.9919 45.3263C91.4679 41.5349 90.7059 37.4324 90.7059 33.0186ZM118.815 37.2626H130.33L157 63.1512H145.231L118.815 37.2626Z" fill="url(#paint2_linear_342_972)"/>
<defs>
<linearGradient id="paint0_linear_342_972" x1="78.6387" y1="-20.9519" x2="78.6387" y2="55.3434" gradientUnits="userSpaceOnUse">
<stop stop-color="#1E9F9D"/>
<stop offset="1" stop-color="#151919"/>
</linearGradient>
<linearGradient id="paint1_linear_342_972" x1="78.6387" y1="-20.9519" x2="78.6387" y2="55.3434" gradientUnits="userSpaceOnUse">
<stop stop-color="#1E9F9D"/>
<stop offset="1" stop-color="#151919"/>
</linearGradient>
<linearGradient id="paint2_linear_342_972" x1="78.6387" y1="-20.9519" x2="78.6387" y2="55.3434" gradientUnits="userSpaceOnUse">
<stop stop-color="#1E9F9D"/>
<stop offset="1" stop-color="#151919"/>
</linearGradient>
</defs>
</svg>
