<svg width="246" height="100" viewBox="0 0 246 100" fill="none" xmlns="http://www.w3.org/2000/svg">
<path d="M9.68437 19.2308V5.17241H51.2078V19.2308H9.68437ZM9.68437 56.1008V42.4403H49.8811V56.1008H9.68437ZM0 5.17241H15.3889V98.0106H0V5.17241Z" fill="url(#paint0_linear_342_1661)"/>
<path d="M70.9973 74.1379L73.9159 60.8753H117.031L120.082 74.1379H70.9973ZM95.2746 31.4324L80.6817 65.5172L80.4163 68.9655L67.5481 98.0106H49.9039L95.2746 0L140.645 98.0106H123.001L110.398 69.7613L110 65.9151L95.2746 31.4324Z" fill="url(#paint1_linear_342_1661)"/>
<path d="M158.708 51.5915C158.708 58.2228 160.123 64.0583 162.953 69.0981C165.783 74.1379 169.631 78.1167 174.495 81.0345C179.448 83.8638 184.975 85.2785 191.078 85.2785C197.269 85.2785 202.752 83.908 207.528 81.1671C212.304 78.3377 216.062 74.4474 218.804 69.496C221.546 64.5446 222.917 58.8859 222.917 52.5199C222.917 46.1538 221.546 40.4067 218.804 35.2785C216.062 30.1503 212.259 26.0831 207.395 23.0769C202.619 20.0707 196.959 18.5676 190.414 18.5676C184.312 18.5676 178.873 19.9823 174.097 22.8117C169.321 25.641 165.562 29.5756 162.821 34.6154C160.079 39.5668 158.708 45.2255 158.708 51.5915ZM142.125 51.5915C142.125 44.6065 143.319 38.1963 145.707 32.3607C148.183 26.5252 151.588 21.4854 155.922 17.2414C160.344 12.9089 165.474 9.54907 171.311 7.1618C177.237 4.77453 183.604 3.5809 190.414 3.5809C197.401 3.5809 203.813 4.77453 209.65 7.1618C215.488 9.54907 220.573 12.9089 224.907 17.2414C229.24 21.4854 232.601 26.5252 234.989 32.3607C237.377 38.1963 238.571 44.6065 238.571 51.5915C238.571 58.4881 237.377 64.8983 234.989 70.8223C232.601 76.7462 229.24 81.8744 224.907 86.2069C220.661 90.5393 215.62 93.9434 209.783 96.4191C203.946 98.8064 197.49 100 190.414 100C183.516 100 177.104 98.8064 171.178 96.4191C165.253 93.9434 160.123 90.5393 155.789 86.2069C151.456 81.8744 148.095 76.7462 145.707 70.8223C143.319 64.8983 142.125 58.4881 142.125 51.5915ZM186.169 58.2228H204.211L246 98.6737H227.56L186.169 58.2228Z" fill="url(#paint2_linear_342_1661)"/>
<defs>
<linearGradient id="paint0_linear_342_1661" x1="123.217" y1="-32.7373" x2="123.217" y2="86.474" gradientUnits="userSpaceOnUse">
<stop stop-color="#1E9F9D"/>
<stop offset="1" stop-color="#151919"/>
</linearGradient>
<linearGradient id="paint1_linear_342_1661" x1="123.217" y1="-32.7373" x2="123.217" y2="86.474" gradientUnits="userSpaceOnUse">
<stop stop-color="#1E9F9D"/>
<stop offset="1" stop-color="#151919"/>
</linearGradient>
<linearGradient id="paint2_linear_342_1661" x1="123.217" y1="-32.7373" x2="123.217" y2="86.474" gradientUnits="userSpaceOnUse">
<stop stop-color="#1E9F9D"/>
<stop offset="1" stop-color="#151919"/>
</linearGradient>
</defs>
</svg>
