<svg width="95" height="27" viewBox="0 0 95 27" fill="none" xmlns="http://www.w3.org/2000/svg">
<g clip-path="url(#clip0_342_1739)">
<path d="M6.68409 0.000488281C2.9928 0.000488281 0 3.02234 0 6.75041V20.2507C0 23.9786 2.9928 27.0005 6.68409 27.0005H20.0526C23.7441 27.0005 26.7369 23.9786 26.7369 20.2507V0.000488281H6.68409Z" fill="#B1EC52"/>
<path d="M7.30733 10.7818C7.08867 9.81621 8.0427 8.96178 9.27675 8.96178C10.3884 8.96178 11.5026 9.21347 11.9265 10.7786H13.3515V13.1671C11.5749 11.6924 7.72326 12.6177 7.30733 10.7818ZM22.093 10.1206H18.883L15.8293 13.498V6.75021H13.3515V8.3852C13.2707 8.27981 13.1854 8.17508 13.0899 8.07287C12.1889 7.10965 10.8908 6.6213 9.23114 6.6213C7.31178 6.6213 6.22054 7.48877 5.64296 8.21637C4.92561 9.11965 4.60533 10.3526 4.82698 11.3572C5.40115 13.9577 7.7907 14.373 9.54613 14.6035C10.932 14.7856 12.2579 15.0396 12.2227 16.2871C12.186 17.5817 10.7409 17.9 9.79238 17.9C7.32199 17.9 7.23864 16.0559 7.23864 16.0559H4.58179C4.62061 16.7484 4.82783 17.8602 5.67201 18.8142C6.59634 19.8595 7.9827 20.3892 9.79238 20.3892C11.1806 20.3892 12.4452 19.9325 13.3515 19.1215V20.236H15.8293V17.0507L16.7059 16.0823L19.2086 20.236H22.0921L18.4503 14.1524L22.093 10.1206Z" fill="white"/>
<path d="M37.9102 12.7912C37.841 12.665 37.7441 12.5389 37.647 12.4129C37.5358 12.3009 37.4111 12.1889 37.2448 12.0908C37.0921 11.9927 36.898 11.9228 36.6761 11.8528C36.4541 11.7966 36.2047 11.7686 35.8995 11.7686C35.7747 11.7686 35.6222 11.7828 35.4557 11.8106C35.2892 11.8528 35.1089 11.9087 34.9286 11.9927C34.7483 12.0908 34.568 12.2169 34.3878 12.3711C34.2215 12.525 34.055 12.7353 33.93 12.9871C33.7777 13.2534 33.6666 13.5612 33.5832 13.9254C33.5003 14.2895 33.4587 14.7236 33.4587 15.2279C33.4587 15.7741 33.5141 16.2502 33.625 16.6844C33.736 17.1188 33.9024 17.4829 34.1103 17.7768C34.3186 18.0711 34.5821 18.2949 34.8871 18.4492C35.1783 18.6031 35.5248 18.6872 35.8995 18.6872C36.3433 18.6872 36.6899 18.6171 36.9674 18.4911C37.2448 18.3511 37.4667 18.1829 37.6329 17.9869C37.7995 17.7912 37.9244 17.5808 37.9935 17.3707C38.0767 17.1608 38.1462 16.9646 38.1876 16.8106H40.254C40.1432 17.4407 39.9629 17.9869 39.6993 18.4492C39.4358 18.9112 39.1168 19.2892 38.7425 19.5975C38.3679 19.9057 37.952 20.1297 37.4805 20.2838C37.0087 20.438 36.5097 20.5078 35.9828 20.5078C35.2476 20.5078 34.5821 20.3819 34.0134 20.1297C33.4448 19.8915 32.9594 19.5277 32.5711 19.0795C32.1827 18.6171 31.8915 18.0569 31.6834 17.3988C31.4756 16.7546 31.3784 16.0264 31.3784 15.2279C31.3784 14.6118 31.434 14.0515 31.5587 13.5473C31.6696 13.0431 31.8362 12.595 32.044 12.203C32.2521 11.8106 32.5015 11.4886 32.793 11.1943C33.0704 10.9142 33.3754 10.6762 33.7222 10.4942C34.055 10.3121 34.4018 10.172 34.7761 10.0741C35.1505 9.98991 35.5248 9.94796 35.8995 9.94796C36.4403 9.94796 36.9258 10.0043 37.3417 10.1161C37.7579 10.2423 38.1323 10.3823 38.4511 10.5783C38.7701 10.7743 39.0337 10.9844 39.2556 11.2363C39.4774 11.4886 39.6715 11.7408 39.8104 11.9927C39.9492 12.2589 40.0461 12.525 40.1294 12.777C40.1986 13.0431 40.2402 13.2813 40.254 13.5053H38.1738L38.0767 13.1693C38.0351 13.0431 37.9798 12.9313 37.9102 12.7912Z" fill="white"/>
<path d="M45.793 12.8053H48.345L45.2939 15.9004L48.4697 20.2559H45.9732L43.8098 17.1046L43.0332 17.9031V20.2559H41.1196V12.8053H43.0332V15.6344L45.793 12.8053Z" fill="white"/>
<path d="M50.2089 17.3568C50.2647 17.6367 50.3616 17.8888 50.5141 18.099C50.6529 18.323 50.8331 18.5051 51.055 18.6312C51.2769 18.7574 51.5543 18.8272 51.8873 18.8272C52.2337 18.8272 52.5251 18.7574 52.747 18.6312C52.969 18.5051 53.1493 18.323 53.2878 18.1131C53.4266 17.903 53.5237 17.665 53.579 17.3846C53.6344 17.1044 53.6622 16.8245 53.6622 16.5304C53.6622 16.2363 53.6344 15.9562 53.579 15.6762C53.5237 15.396 53.4266 15.1439 53.2878 14.934C53.1493 14.7237 52.969 14.5558 52.747 14.4157C52.5251 14.2895 52.2337 14.2336 51.8873 14.2336C51.5543 14.2336 51.2769 14.3036 51.055 14.4298C50.8331 14.5558 50.6529 14.7376 50.5141 14.9479C50.3616 15.172 50.2647 15.41 50.2089 15.6901C50.1535 15.9701 50.112 16.2502 50.112 16.5304C50.112 16.8106 50.1535 17.0905 50.2089 17.3568ZM48.3785 14.9479C48.5449 14.4577 48.7944 14.0376 49.1272 13.6874C49.4602 13.3374 49.8485 13.0712 50.3201 12.875C50.7913 12.6789 51.3046 12.5811 51.8873 12.5811C52.4835 12.5811 53.0106 12.6789 53.4819 12.875C53.9534 13.0712 54.3418 13.3374 54.6606 13.6874C54.9798 14.0376 55.2296 14.4577 55.4099 14.9479C55.576 15.4243 55.6591 15.9562 55.6591 16.5304C55.6591 17.1044 55.576 17.6367 55.4099 18.1131C55.2296 18.6032 54.9798 19.0233 54.6606 19.3734C54.3418 19.7095 53.9534 19.9897 53.4819 20.1859C53.0106 20.3819 52.4835 20.48 51.8873 20.48C51.3046 20.48 50.7913 20.3819 50.3201 20.1859C49.8485 19.9897 49.4602 19.7095 49.1272 19.3734C48.7944 19.0233 48.5449 18.6032 48.3785 18.1131C48.2119 17.6367 48.115 17.1044 48.115 16.5304C48.115 15.9562 48.2119 15.4243 48.3785 14.9479Z" fill="white"/>
<path d="M59.2651 14.3735L59.2379 15.7602C59.2097 16.5443 59.1543 17.2306 59.0848 17.8188C59.0017 18.4072 58.8768 18.8973 58.7107 19.2893C58.5304 19.6817 58.2947 19.9756 58.0031 20.1859C57.7121 20.3819 57.3239 20.48 56.8661 20.48C56.644 20.48 56.4638 20.4658 56.2976 20.4519C56.1309 20.4238 56.006 20.3819 55.8953 20.3397V18.7152C55.9648 18.7431 56.0478 18.7713 56.145 18.7994C56.2417 18.8133 56.353 18.8272 56.4915 18.8272C56.644 18.8272 56.7689 18.7853 56.8797 18.6872C56.991 18.6032 57.0882 18.4492 57.1713 18.2112C57.2544 17.9728 57.3097 17.6506 57.3651 17.2306C57.4069 16.8106 57.4346 16.2783 57.4488 15.6203L57.5041 12.8051H63.4396V20.2557H61.5396V14.3735H59.2651Z" fill="white"/>
<path d="M69.5102 12.8053H72.0617L69.0106 15.9004L72.1866 20.2559H69.6905L67.5266 17.1046L66.7502 17.9031V20.2559H64.8367V12.8053H66.7502V15.6344L69.5102 12.8053Z" fill="white"/>
<path d="M73.9258 17.3568C73.9812 17.6367 74.0784 17.8888 74.231 18.099C74.3695 18.323 74.5497 18.5051 74.7718 18.6312C74.9939 18.7574 75.2708 18.8272 75.6042 18.8272C75.9507 18.8272 76.2417 18.7574 76.4638 18.6312C76.6859 18.5051 76.8661 18.323 77.0046 18.1131C77.1436 17.903 77.2403 17.665 77.2956 17.3846C77.3516 17.1044 77.3793 16.8245 77.3793 16.5304C77.3793 16.2363 77.3516 15.9562 77.2956 15.6762C77.2403 15.396 77.1436 15.1439 77.0046 14.934C76.8661 14.7237 76.6859 14.5558 76.4638 14.4157C76.2417 14.2895 75.9507 14.2336 75.6042 14.2336C75.2708 14.2336 74.9939 14.3036 74.7718 14.4298C74.5497 14.5558 74.3695 14.7376 74.231 14.9479C74.0784 15.172 73.9812 15.41 73.9258 15.6901C73.8705 15.9701 73.8287 16.2502 73.8287 16.5304C73.8287 16.8106 73.8705 17.0905 73.9258 17.3568ZM72.0954 14.9479C72.2616 14.4577 72.5114 14.0376 72.8442 13.6874C73.1771 13.3374 73.5653 13.0712 74.0366 12.875C74.5085 12.6789 75.0216 12.5811 75.6042 12.5811C76.2004 12.5811 76.7277 12.6789 77.199 12.875C77.6703 13.0712 78.0585 13.3374 78.3778 13.6874C78.6965 14.0376 78.9463 14.4577 79.1266 14.9479C79.2928 15.4243 79.3758 15.9562 79.3758 16.5304C79.3758 17.1044 79.2928 17.6367 79.1266 18.1131C78.9463 18.6032 78.6965 19.0233 78.3778 19.3734C78.0585 19.7095 77.6703 19.9897 77.199 20.1859C76.7277 20.3819 76.2004 20.48 75.6042 20.48C75.0216 20.48 74.5085 20.3819 74.0366 20.1859C73.5653 19.9897 73.1771 19.7095 72.8442 19.3734C72.5114 19.0233 72.2616 18.6032 72.0954 18.1131C71.9287 17.6367 71.8315 17.1044 71.8315 16.5304C71.8315 15.9562 71.9287 15.4243 72.0954 14.9479Z" fill="white"/>
<path d="M84.3354 18.7995C84.5021 18.7293 84.627 18.6593 84.7242 18.5614C84.8073 18.4774 84.8768 18.3791 84.9045 18.2672C84.9322 18.1551 84.9457 18.0571 84.9457 17.959C84.9457 17.777 84.9322 17.6229 84.8768 17.497C84.835 17.3848 84.7655 17.2867 84.6547 17.2168C84.5575 17.1329 84.419 17.0907 84.2523 17.0626C84.0862 17.0348 83.8918 17.0206 83.6561 17.0206H82.1863V18.8833H83.6561C83.9336 18.8833 84.1693 18.8555 84.3354 18.7995ZM84.2111 15.6763C84.3495 15.6344 84.4603 15.5922 84.5439 15.5224C84.627 15.466 84.6959 15.3823 84.7242 15.2839C84.7655 15.1861 84.7796 15.0599 84.7796 14.9342C84.7796 14.8219 84.7655 14.7238 84.7242 14.6259C84.6959 14.5418 84.627 14.4578 84.5439 14.3879C84.4744 14.3316 84.3631 14.2757 84.2246 14.2338C84.0862 14.1915 83.9195 14.1776 83.7115 14.1776H82.1863V15.7323H83.6561C83.8777 15.7323 84.0579 15.7044 84.2111 15.6763ZM85.0706 12.8892C85.3758 12.9593 85.6532 13.0576 85.9025 13.1973C86.1387 13.3515 86.3325 13.5475 86.4715 13.7998C86.61 14.0517 86.6795 14.3736 86.6795 14.766C86.6795 14.9901 86.6654 15.1861 86.61 15.3403C86.5687 15.5082 86.4992 15.6483 86.4161 15.7603C86.3325 15.8865 86.2359 15.9844 86.1387 16.0544C86.0274 16.1384 85.9307 16.2086 85.8058 16.2645C86.1805 16.3907 86.4574 16.6006 86.6518 16.8947C86.8456 17.1888 86.9428 17.5251 86.9428 17.931C86.9428 18.2812 86.8875 18.6033 86.7767 18.8833C86.6518 19.1637 86.4851 19.4156 86.2636 19.6116C86.0415 19.8217 85.7776 19.9757 85.4588 20.088C85.1401 20.1998 84.7931 20.2559 84.4049 20.2559H80.2722V12.8053H84.0862C84.4326 12.8053 84.7519 12.8331 85.0706 12.8892Z" fill="white"/>
<path d="M89.5504 17.3568C89.6057 17.6367 89.7029 17.8888 89.8555 18.099C89.994 18.323 90.1743 18.5051 90.3963 18.6312C90.6184 18.7574 90.8953 18.8272 91.2287 18.8272C91.5752 18.8272 91.8662 18.7574 92.0883 18.6312C92.3104 18.5051 92.4907 18.323 92.6291 18.1131C92.7681 17.903 92.8648 17.665 92.9202 17.3846C92.9761 17.1044 93.0038 16.8245 93.0038 16.5304C93.0038 16.2363 92.9761 15.9562 92.9202 15.6762C92.8648 15.396 92.7681 15.1439 92.6291 14.934C92.4907 14.7237 92.3104 14.5558 92.0883 14.4157C91.8662 14.2895 91.5752 14.2336 91.2287 14.2336C90.8953 14.2336 90.6184 14.3036 90.3963 14.4298C90.1743 14.5558 89.994 14.7376 89.8555 14.9479C89.7029 15.172 89.6057 15.41 89.5504 15.6901C89.495 15.9701 89.4532 16.2502 89.4532 16.5304C89.4532 16.8106 89.495 17.0905 89.5504 17.3568ZM87.7199 14.9479C87.8861 14.4577 88.1359 14.0376 88.4687 13.6874C88.8016 13.3374 89.1898 13.0712 89.6611 12.875C90.1324 12.6789 90.6461 12.5811 91.2287 12.5811C91.8249 12.5811 92.3516 12.6789 92.8235 12.875C93.2948 13.0712 93.683 13.3374 94.0018 13.6874C94.3211 14.0376 94.5708 14.4577 94.7511 14.9479C94.9173 15.4243 95.0003 15.9562 95.0003 16.5304C95.0003 17.1044 94.9173 17.6367 94.7511 18.1131C94.5708 18.6032 94.3211 19.0233 94.0018 19.3734C93.683 19.7095 93.2948 19.9897 92.8235 20.1859C92.3516 20.3819 91.8249 20.48 91.2287 20.48C90.6461 20.48 90.1324 20.3819 89.6611 20.1859C89.1898 19.9897 88.8016 19.7095 88.4687 19.3734C88.1359 19.0233 87.8861 18.6032 87.7199 18.1131C87.5532 17.6367 87.4561 17.1044 87.4561 16.5304C87.4561 15.9562 87.5532 15.4243 87.7199 14.9479Z" fill="white"/>
</g>
<defs>
<clipPath id="clip0_342_1739">
<rect width="95" height="27" fill="white"/>
</clipPath>
</defs>
</svg>
