<svg width="157" height="71" viewBox="0 0 157 71" fill="none" xmlns="http://www.w3.org/2000/svg">
<path d="M10.2873 29.7596C10.2873 33.7056 11.1103 37.2406 12.7563 40.3645C14.4571 43.4337 16.7889 45.8451 19.7516 47.5989C22.7144 49.3527 26.0886 50.2296 29.8743 50.2296C33.7149 50.2296 37.0892 49.3527 39.997 47.5989C42.9598 45.8451 45.2641 43.4337 46.9101 40.3645C48.6109 37.2406 49.4614 33.7056 49.4614 29.7596C49.4614 25.8136 48.6384 22.306 46.9924 19.2369C45.3464 16.1129 43.0421 13.6741 40.0793 11.9203C37.1715 10.1665 33.7698 9.28959 29.8743 9.28959C26.0886 9.28959 22.7144 10.1665 19.7516 11.9203C16.7889 13.6741 14.4571 16.1129 12.7563 19.2369C11.1103 22.306 10.2873 25.8136 10.2873 29.7596ZM0 29.7596C0 25.4299 0.740686 21.4565 2.22206 17.8393C3.70343 14.2221 5.78832 11.0982 8.47674 8.46751C11.22 5.78202 14.4022 3.69939 18.0234 2.21963C21.6994 0.739878 25.6497 0 29.8743 0C34.2087 0 38.1865 0.739878 41.8076 2.21963C45.4287 3.69939 48.5835 5.78202 51.2719 8.46751C54.0152 11.0982 56.1275 14.2221 57.6089 17.8393C59.0903 21.4565 59.831 25.4299 59.831 29.7596C59.831 34.0344 59.0903 38.0079 57.6089 41.6799C56.1275 45.3519 54.0426 48.5306 51.3542 51.2161C48.6658 53.9016 45.4836 56.0116 41.8076 57.5462C38.1865 59.0259 34.2087 59.7658 29.8743 59.7658C25.5948 59.7658 21.6171 59.0259 17.9411 57.5462C14.2651 56.0116 11.0829 53.9016 8.39444 51.2161C5.76089 48.5306 3.70343 45.3519 2.22206 41.6799C0.740686 38.0079 0 34.0344 0 29.7596Z" fill="url(#paint0_linear_342_824)"/>
<path d="M54.6024 54.8933H45.5131V70.6013H42.2861V51.9962H57.8025V70.6013H54.6024V54.8933Z" fill="url(#paint1_linear_342_824)"/>
<path d="M62.0595 51.9962H65.2327V70.6013H62.0595V51.9962ZM63.9419 54.7604V51.9962H67.7336C69.0961 51.9962 70.2794 52.2354 71.2833 52.7138C72.3052 53.1745 73.094 53.839 73.6498 54.7072C74.2055 55.5577 74.4834 56.5766 74.4834 57.7638C74.4834 58.951 74.2055 59.9787 73.6498 60.8469C73.094 61.7152 72.3052 62.3885 71.2833 62.8669C70.2794 63.3276 69.0961 63.558 67.7336 63.558H63.9419V60.7938H67.7336C68.8272 60.7938 69.7057 60.5368 70.369 60.023C71.0323 59.5091 71.364 58.7561 71.364 57.7638C71.364 56.7715 71.0323 56.0273 70.369 55.5312C69.7057 55.0173 68.8272 54.7604 67.7336 54.7604H63.9419Z" fill="url(#paint2_linear_342_824)"/>
<path d="M79.8919 61.2988C79.8919 62.5745 80.1609 63.7174 80.6987 64.7274C81.2544 65.7197 82.0164 66.4993 82.9845 67.0664C83.9526 67.6334 85.0551 67.9169 86.2921 67.9169C87.547 67.9169 88.6496 67.6334 89.5998 67.0664C90.5678 66.4993 91.3208 65.7197 91.8586 64.7274C92.4144 63.7174 92.6923 62.5745 92.6923 61.2988C92.6923 60.023 92.4234 58.889 91.8855 57.8967C91.3477 56.8867 90.5947 56.0982 89.6266 55.5312C88.6765 54.9642 87.565 54.6806 86.2921 54.6806C85.0551 54.6806 83.9526 54.9642 82.9845 55.5312C82.0164 56.0982 81.2544 56.8867 80.6987 57.8967C80.1609 58.889 79.8919 60.023 79.8919 61.2988ZM76.5305 61.2988C76.5305 59.8989 76.7725 58.6143 77.2566 57.4448C77.7406 56.2754 78.4219 55.2654 79.3003 54.4149C80.1967 53.5466 81.2365 52.8733 82.4197 52.3949C83.6209 51.9165 84.9117 51.6772 86.2921 51.6772C87.7084 51.6772 89.0081 51.9165 90.1914 52.3949C91.3746 52.8733 92.4054 53.5466 93.2839 54.4149C94.1803 55.2654 94.8705 56.2754 95.3545 57.4448C95.8386 58.6143 96.0806 59.8989 96.0806 61.2988C96.0806 62.6809 95.8386 63.9655 95.3545 65.1527C94.8705 66.3399 94.1892 67.3676 93.3108 68.2358C92.4323 69.1041 91.3925 69.7863 90.1914 70.2824C89.0081 70.7608 87.7084 71 86.2921 71C84.8938 71 83.594 70.7608 82.3928 70.2824C81.1917 69.7863 80.1519 69.1041 79.2734 68.2358C78.4129 67.3676 77.7406 66.3399 77.2566 65.1527C76.7725 63.9655 76.5305 62.6809 76.5305 61.2988Z" fill="url(#paint3_linear_342_824)"/>
<path d="M101.13 70.6013V67.8371H110.622V70.6013H101.13ZM101.13 54.7604V51.9962H110.622V54.7604H101.13ZM101.13 61.9898V59.2788H110.085V61.9898H101.13ZM99.1666 51.9962H102.286V70.6013H99.1666V51.9962Z" fill="url(#paint4_linear_342_824)"/>
<path d="M114.529 51.9962H117.783V70.6013H114.529V51.9962ZM124.775 51.9962H128.594L120.661 60.714L128.997 70.6013H125.098L116.815 60.7938L124.775 51.9962Z" fill="url(#paint5_linear_342_824)"/>
<path d="M130.111 54.8933V51.9962H143.234V54.8933H138.259V70.6013H135.059V54.8933H130.111Z" fill="url(#paint6_linear_342_824)"/>
<path d="M147.507 70.6013V67.8371H157V70.6013H147.507ZM147.507 54.7604V51.9962H157V54.7604H147.507ZM147.507 61.9898V59.2788H156.462V61.9898H147.507ZM145.544 51.9962H148.663V70.6013H145.544V51.9962Z" fill="url(#paint7_linear_342_824)"/>
<defs>
<linearGradient id="paint0_linear_342_824" x1="29.9155" y1="8.169e-10" x2="29.9018" y2="47.5441" gradientUnits="userSpaceOnUse">
<stop stop-color="white"/>
<stop offset="1" stop-color="#151919"/>
</linearGradient>
<linearGradient id="paint1_linear_342_824" x1="99.7442" y1="45.3515" x2="99.7442" y2="68.3864" gradientUnits="userSpaceOnUse">
<stop stop-color="#1E9F9D"/>
<stop offset="1" stop-color="#151919"/>
</linearGradient>
<linearGradient id="paint2_linear_342_824" x1="99.7442" y1="45.3515" x2="99.7442" y2="68.3864" gradientUnits="userSpaceOnUse">
<stop stop-color="#1E9F9D"/>
<stop offset="1" stop-color="#151919"/>
</linearGradient>
<linearGradient id="paint3_linear_342_824" x1="99.7442" y1="45.3515" x2="99.7442" y2="68.3864" gradientUnits="userSpaceOnUse">
<stop stop-color="#1E9F9D"/>
<stop offset="1" stop-color="#151919"/>
</linearGradient>
<linearGradient id="paint4_linear_342_824" x1="99.7442" y1="45.3515" x2="99.7442" y2="68.3864" gradientUnits="userSpaceOnUse">
<stop stop-color="#1E9F9D"/>
<stop offset="1" stop-color="#151919"/>
</linearGradient>
<linearGradient id="paint5_linear_342_824" x1="99.7442" y1="45.3515" x2="99.7442" y2="68.3864" gradientUnits="userSpaceOnUse">
<stop stop-color="#1E9F9D"/>
<stop offset="1" stop-color="#151919"/>
</linearGradient>
<linearGradient id="paint6_linear_342_824" x1="99.7442" y1="45.3515" x2="99.7442" y2="68.3864" gradientUnits="userSpaceOnUse">
<stop stop-color="#1E9F9D"/>
<stop offset="1" stop-color="#151919"/>
</linearGradient>
<linearGradient id="paint7_linear_342_824" x1="99.7442" y1="45.3515" x2="99.7442" y2="68.3864" gradientUnits="userSpaceOnUse">
<stop stop-color="#1E9F9D"/>
<stop offset="1" stop-color="#151919"/>
</linearGradient>
</defs>
</svg>
