<svg width="18" height="18" viewBox="0 0 18 18" fill="none" xmlns="http://www.w3.org/2000/svg">
<path d="M11.4556 6.14579C11.1492 6.08598 10.8266 6.05607 10.4879 6.05607C9.90726 6.05607 9.37097 6.17196 8.87903 6.40374C8.39516 6.62804 7.97581 6.9271 7.62097 7.30093C7.26613 7.66729 6.9879 8.09346 6.78629 8.57944C6.59274 9.05794 6.49597 9.54766 6.49597 10.0486C6.49597 10.572 6.62097 10.9907 6.87097 11.3047C7.12903 11.6112 7.50806 11.7645 8.00806 11.7645C8.25 11.7645 8.49193 11.7308 8.73387 11.6636C8.98387 11.5888 9.21774 11.4617 9.43548 11.2822C9.66129 11.1028 9.87097 10.8636 10.0645 10.5645C10.2581 10.2654 10.4194 9.88411 10.5484 9.42056L11.4556 6.14579ZM12.3871 9.20748C12.2339 9.75327 12.1573 10.1981 12.1573 10.5421C12.1653 10.8785 12.2258 11.1439 12.3387 11.3383C12.4516 11.5327 12.6089 11.6673 12.8105 11.7421C13.0121 11.8093 13.2339 11.843 13.4758 11.843C13.8548 11.843 14.2137 11.7421 14.5524 11.5402C14.8992 11.3308 15.2016 11.0393 15.4597 10.6654C15.7177 10.2841 15.9234 9.83178 16.0766 9.30841C16.2298 8.78505 16.3065 8.20935 16.3065 7.58131C16.3065 6.56449 16.129 5.67103 15.7742 4.90093C15.4274 4.13084 14.9435 3.49159 14.3226 2.98318C13.7097 2.47477 12.9839 2.09346 12.1452 1.83925C11.3065 1.57757 10.3952 1.44673 9.41129 1.44673C8.33871 1.44673 7.33468 1.63738 6.39919 2.01869C5.46371 2.39252 4.64919 2.91215 3.95565 3.57757C3.27016 4.24299 2.72581 5.03178 2.32258 5.94392C1.92742 6.8486 1.72984 7.83178 1.72984 8.89346C1.72984 10.1495 1.94355 11.2561 2.37097 12.2131C2.79839 13.1701 3.37903 13.9701 4.1129 14.6131C4.85484 15.2486 5.72581 15.7271 6.72581 16.0486C7.72581 16.3776 8.79839 16.5421 9.94355 16.5421C11.1694 16.5421 12.25 16.4224 13.1855 16.1832C14.121 15.9439 14.9153 15.6411 15.5685 15.2748C15.746 15.1776 15.8992 15.1477 16.0282 15.185C16.1573 15.2224 16.254 15.3159 16.3185 15.4654L16.6452 16.2729C15.7903 16.7963 14.8065 17.215 13.6935 17.529C12.5806 17.843 11.3306 18 9.94355 18C8.52419 18 7.20968 17.7907 6 17.372C4.79032 16.9607 3.7379 16.3626 2.84274 15.5776C1.95564 14.8 1.25806 13.8505 0.75 12.729C0.25 11.6 0 10.3215 0 8.89346C0 8.08598 0.108871 7.30467 0.326613 6.54953C0.552419 5.79439 0.866935 5.08785 1.27016 4.42991C1.67339 3.77196 2.16129 3.17009 2.73387 2.6243C3.30645 2.0785 3.93952 1.61121 4.63306 1.22243C5.32661 0.833644 6.07661 0.534579 6.88306 0.325233C7.68952 0.108411 8.53226 0 9.41129 0C10.1613 0 10.8952 0.0785043 11.6129 0.235513C12.3306 0.385046 13.004 0.609345 13.6331 0.908411C14.2702 1.2 14.8548 1.56262 15.3871 1.99626C15.9274 2.42243 16.3871 2.91963 16.7661 3.48785C17.1532 4.0486 17.4556 4.6729 17.6734 5.36075C17.8911 6.04112 18 6.78131 18 7.58131C18 8.38879 17.875 9.13645 17.625 9.8243C17.375 10.5121 17.0323 11.1103 16.5968 11.6187C16.1613 12.1196 15.6452 12.5159 15.0484 12.8075C14.4597 13.0916 13.8226 13.2336 13.1371 13.2336C12.5323 13.2336 12.0242 13.0991 11.6129 12.8299C11.2097 12.5607 10.9476 12.1421 10.8266 11.5738C10.3589 12.157 9.85081 12.5757 9.30242 12.8299C8.7621 13.0766 8.17742 13.2 7.54839 13.2C7.06452 13.2 6.64113 13.1215 6.27823 12.9645C5.91532 12.8075 5.6129 12.5907 5.37097 12.314C5.12903 12.0374 4.94758 11.7121 4.82661 11.3383C4.71371 10.957 4.65726 10.5458 4.65726 10.1047C4.65726 9.46916 4.78629 8.82991 5.04435 8.18692C5.31048 7.53645 5.70161 6.94953 6.21774 6.42617C6.74193 5.9028 7.39113 5.47664 8.16532 5.14766C8.93952 4.81869 9.83871 4.65421 10.8629 4.65421C11.4194 4.65421 11.9073 4.69533 12.3266 4.77757C12.746 4.85981 13.1452 4.9757 13.5242 5.12523L12.3871 9.20748Z" fill="white"/>
</svg>
