<svg width="56" height="55" viewBox="0 0 56 55" fill="none" xmlns="http://www.w3.org/2000/svg">
<path d="M10.0133 8.28767C10.0133 8.83996 10.461 9.28767 11.0133 9.28767C11.5656 9.28767 12.0133 8.83996 12.0133 8.28767H10.0133ZM21.4133 4.49315C20.861 4.49315 20.4133 4.94087 20.4133 5.49315C20.4133 6.04543 20.861 6.49315 21.4133 6.49315V4.49315ZM26.96 6.49315C27.5123 6.49315 27.96 6.04543 27.96 5.49315C27.96 4.94087 27.5123 4.49315 26.96 4.49315V6.49315ZM15.8667 37.3288C15.3144 37.3288 14.8667 37.7765 14.8667 38.3288C14.8667 38.8811 15.3144 39.3288 15.8667 39.3288V37.3288ZM32.8533 39.3288C33.4056 39.3288 33.8533 38.8811 33.8533 38.3288C33.8533 37.7765 33.4056 37.3288 32.8533 37.3288V39.3288ZM15.8667 44.3151C15.3144 44.3151 14.8667 44.7628 14.8667 45.3151C14.8667 45.8674 15.3144 46.3151 15.8667 46.3151V44.3151ZM29.04 46.3151C29.5923 46.3151 30.04 45.8674 30.04 45.3151C30.04 44.7628 29.5923 44.3151 29.04 44.3151V46.3151ZM15.8667 40.8219C15.3144 40.8219 14.8667 41.2696 14.8667 41.8219C14.8667 42.3742 15.3144 42.8219 15.8667 42.8219V40.8219ZM24.5333 42.8219C25.0856 42.8219 25.5333 42.3742 25.5333 41.8219C25.5333 41.2696 25.0856 40.8219 24.5333 40.8219V42.8219ZM12.0133 36.7514C12.0133 36.1992 11.5656 35.7514 11.0133 35.7514C10.461 35.7514 10.0133 36.1992 10.0133 36.7514H12.0133ZM37.0206 52.3088L36.0207 52.2982V52.2982L37.0206 52.3088ZM38.3599 20.1749C38.3658 19.6227 37.9228 19.1703 37.3706 19.1644C36.8183 19.1586 36.3659 19.6016 36.3601 20.1538L38.3599 20.1749ZM4.95755 29.8593L4.22175 30.5364L4.95755 29.8593ZM21.2291 29.8593L21.9649 30.5364L21.2291 29.8593ZM45.085 39.184L44.7977 40.1418C45.3208 40.2987 45.8731 40.0069 46.0382 39.4863L45.085 39.184ZM42.0705 37.3311L41.3038 36.6891C40.9768 37.0796 40.9955 37.6534 41.3473 38.0218L42.0705 37.3311ZM40.2741 33.8946L39.2941 34.0935C39.3961 34.5963 39.8621 34.9402 40.3726 34.8897L40.2741 33.8946ZM40.4508 30.3911L40.4652 29.3912C40.0223 29.3848 39.6279 29.6706 39.4961 30.0935L40.4508 30.3911ZM42.3467 27.3697L41.6629 26.64C41.3424 26.9403 41.2554 27.4146 41.4484 27.8092L42.3467 27.3697ZM45.2127 25.7534L46.1049 25.3017C45.8895 24.8762 45.4035 24.662 44.944 24.7902L45.2127 25.7534ZM48.9206 25.7534L49.1893 24.7902C48.7299 24.662 48.2439 24.8762 48.0284 25.3017L48.9206 25.7534ZM51.7867 27.3697L52.6849 27.8092C52.878 27.4146 52.7909 26.9403 52.4704 26.64L51.7867 27.3697ZM53.6825 30.3911L54.6372 30.0935C54.5054 29.6706 54.111 29.3848 53.6681 29.3912L53.6825 30.3911ZM53.8592 33.8946L53.7607 34.8897C54.2712 34.9402 54.7372 34.5963 54.8393 34.0935L53.8592 33.8946ZM52.0629 37.3311L52.786 38.0217C53.1378 37.6534 53.1565 37.0796 52.8296 36.6891L52.0629 37.3311ZM49.0483 39.184L48.0951 39.4863C48.2602 40.0069 48.8125 40.2987 49.3356 40.1418L49.0483 39.184ZM12.0133 8.28767V2.69863H10.0133V8.28767H12.0133ZM11.7067 3H36.6667V1H11.7067V3ZM36.36 2.69863V7.95674H38.36V2.69863H36.36ZM36.6667 3C36.4901 3 36.36 2.85788 36.36 2.69863H38.36C38.36 1.76769 37.609 1 36.6667 1V3ZM12.0133 2.69863C12.0133 2.85788 11.8832 3 11.7067 3V1C10.7643 1 10.0133 1.76769 10.0133 2.69863H12.0133ZM21.4133 6.49315H26.96V4.49315H21.4133V6.49315ZM32.8533 12.7808H42.56V10.7808H32.8533V12.7808ZM42.56 15.6712H32.8533V17.6712H42.56V15.6712ZM32.8533 15.6712C31.4418 15.6712 30.7333 14.8109 30.7333 14.226H28.7333C28.7333 16.342 30.8186 17.6712 32.8533 17.6712V15.6712ZM44.68 14.226C44.68 14.8109 43.9715 15.6712 42.56 15.6712V17.6712C44.5947 17.6712 46.68 16.342 46.68 14.226H44.68ZM42.56 12.7808C43.9715 12.7808 44.68 13.6411 44.68 14.226H46.68C46.68 12.11 44.5947 10.7808 42.56 10.7808V12.7808ZM32.8533 10.7808C30.8186 10.7808 28.7333 12.11 28.7333 14.226H30.7333C30.7333 13.6411 31.4418 12.7808 32.8533 12.7808V10.7808ZM15.8667 39.3288H32.8533V37.3288H15.8667V39.3288ZM15.8667 46.3151H29.04V44.3151H15.8667V46.3151ZM15.8667 42.8219H24.5333V40.8219H15.8667V42.8219ZM10.0133 36.7514V52.3014H12.0133V36.7514H10.0133ZM11.7067 54H36.3273V52H11.7067V54ZM38.0206 52.3194L38.3599 20.1749L36.3601 20.1538L36.0207 52.2982L38.0206 52.3194ZM36.3273 54C37.2626 54 38.0108 53.2433 38.0206 52.3194L36.0207 52.2982C36.0224 52.1401 36.1522 52 36.3273 52V54ZM10.0133 52.3014C10.0133 53.2323 10.7643 54 11.7067 54V52C11.8832 52 12.0133 52.1421 12.0133 52.3014H10.0133ZM3 22.2603C3 16.6319 7.5261 12.0822 13.0933 12.0822V10.0822C6.40721 10.0822 1 15.5417 1 22.2603H3ZM13.0933 12.0822C18.6606 12.0822 23.1867 16.6319 23.1867 22.2603H25.1867C25.1867 15.5417 19.7795 10.0822 13.0933 10.0822V12.0822ZM13.0933 32.4384C10.1712 32.4384 7.5389 31.1873 5.69336 29.1821L4.22175 30.5364C6.42828 32.934 9.58637 34.4384 13.0933 34.4384V32.4384ZM5.69336 29.1821C4.02178 27.3658 3 24.935 3 22.2603H1C1 25.4543 2.22245 28.3641 4.22175 30.5364L5.69336 29.1821ZM23.1867 22.2603C23.1867 24.935 22.1649 27.3658 20.4933 29.1821L21.9649 30.5364C23.9642 28.3641 25.1867 25.4543 25.1867 22.2603H23.1867ZM20.4933 29.1821C18.6478 31.1873 16.0155 32.4384 13.0933 32.4384V34.4384C16.6003 34.4384 19.7584 32.934 21.9649 30.5364L20.4933 29.1821ZM4.95755 29.8593C5.88203 30.2405 5.88176 30.2412 5.88149 30.2418C5.88141 30.242 5.88114 30.2426 5.88098 30.243C5.88065 30.2438 5.88034 30.2446 5.88006 30.2452C5.87948 30.2466 5.879 30.2478 5.8786 30.2487C5.87781 30.2505 5.87737 30.2516 5.87729 30.2517C5.87714 30.2521 5.87844 30.2491 5.88129 30.243C5.88701 30.2309 5.89891 30.2064 5.91776 30.1714C5.9555 30.1012 6.02086 29.989 6.11998 29.8483C6.31798 29.5673 6.65059 29.1728 7.16838 28.7711C8.19015 27.9785 10.0042 27.1027 13.0933 27.1027V25.1027C9.59575 25.1027 7.34196 26.1052 5.9425 27.1909C5.24969 27.7283 4.78335 28.273 4.48506 28.6963C4.33603 28.9078 4.22891 29.0891 4.1562 29.2243C4.11983 29.292 4.09202 29.3482 4.07182 29.3911C4.06172 29.4125 4.05352 29.4307 4.04711 29.4452C4.0439 29.4525 4.04113 29.4589 4.0388 29.4644C4.03763 29.4671 4.03657 29.4696 4.03562 29.4719C4.03514 29.473 4.03469 29.4741 4.03427 29.4751C4.03406 29.4756 4.03376 29.4764 4.03365 29.4766C4.03336 29.4773 4.03308 29.478 4.95755 29.8593ZM13.0933 27.1027C16.1824 27.1027 17.9965 27.9785 19.0183 28.7711C19.5361 29.1728 19.8687 29.5673 20.0667 29.8483C20.1658 29.989 20.2312 30.1012 20.2689 30.1714C20.2878 30.2064 20.2997 30.2309 20.3054 30.243C20.3082 30.2491 20.3095 30.2521 20.3094 30.2517C20.3093 30.2516 20.3089 30.2505 20.3081 30.2487C20.3077 30.2478 20.3072 30.2466 20.3066 30.2452C20.3063 30.2446 20.306 30.2438 20.3057 30.243C20.3055 30.2426 20.3053 30.242 20.3052 30.2418C20.3049 30.2412 20.3046 30.2405 21.2291 29.8593C22.1536 29.478 22.1533 29.4773 22.153 29.4766C22.1529 29.4764 22.1526 29.4756 22.1524 29.4751C22.152 29.4741 22.1515 29.473 22.151 29.4719C22.1501 29.4696 22.149 29.4671 22.1479 29.4644C22.1455 29.4589 22.1428 29.4525 22.1396 29.4452C22.1331 29.4307 22.1249 29.4125 22.1148 29.3911C22.0946 29.3482 22.0668 29.292 22.0305 29.2243C21.9578 29.0891 21.8506 28.9078 21.7016 28.6963C21.4033 28.273 20.937 27.7283 20.2442 27.1909C18.8447 26.1052 16.5909 25.1027 13.0933 25.1027V27.1027ZM15.56 19.4658C15.56 20.8499 14.4485 21.9589 13.0933 21.9589V23.9589C15.5674 23.9589 17.56 21.9401 17.56 19.4658H15.56ZM13.0933 21.9589C11.7382 21.9589 10.6267 20.8499 10.6267 19.4658H8.62667C8.62667 21.9401 10.6193 23.9589 13.0933 23.9589V21.9589ZM10.6267 19.4658C10.6267 18.0816 11.7382 16.9726 13.0933 16.9726V14.9726C10.6193 14.9726 8.62667 16.9914 8.62667 19.4658H10.6267ZM13.0933 16.9726C14.4485 16.9726 15.56 18.0816 15.56 19.4658H17.56C17.56 16.9914 15.5674 14.9726 13.0933 14.9726V16.9726ZM45.3724 38.2261C44.3809 37.9287 43.4959 37.3757 42.7936 36.6404L41.3473 38.0218C42.2827 39.0011 43.4658 39.7422 44.7977 40.1418L45.3724 38.2261ZM42.8372 37.9731C43.2882 37.4344 43.56 36.7375 43.56 35.9803H41.56C41.56 36.2524 41.4636 36.4982 41.3038 36.6891L42.8372 37.9731ZM43.56 35.9803C43.56 34.2777 42.1882 32.8844 40.48 32.8844V34.8844C41.0693 34.8844 41.56 35.3679 41.56 35.9803H43.56ZM40.48 32.8844C40.3776 32.8844 40.2761 32.8895 40.1755 32.8994L40.3726 34.8897C40.4076 34.8862 40.4434 34.8844 40.48 34.8844V32.8844ZM41.2541 33.6956C41.175 33.3061 41.1333 32.9021 41.1333 32.4872H39.1333C39.1333 33.0364 39.1886 33.5738 39.2941 34.0935L41.2541 33.6956ZM41.1333 32.4872C41.1333 31.8589 41.2289 31.2551 41.4055 30.6887L39.4961 30.0935C39.2601 30.8505 39.1333 31.6549 39.1333 32.4872H41.1333ZM40.4364 31.391C40.4509 31.3912 40.4654 31.3913 40.48 31.3913V29.3913C40.4751 29.3913 40.4702 29.3912 40.4652 29.3912L40.4364 31.391ZM40.48 31.3913C42.1882 31.3913 43.56 29.998 43.56 28.2954H41.56C41.56 28.9078 41.0693 29.3913 40.48 29.3913V31.3913ZM43.56 28.2954C43.56 27.8076 43.4471 27.3433 43.2449 26.9302L41.4484 27.8092C41.5194 27.9543 41.56 28.1185 41.56 28.2954H43.56ZM43.0304 28.0994C43.7178 27.4554 44.555 26.9751 45.4814 26.7167L44.944 24.7902C43.6993 25.1374 42.5792 25.7815 41.6629 26.64L43.0304 28.0994ZM44.3206 26.2051C44.8268 27.2051 45.8634 27.8981 47.0667 27.8981V25.8981C46.6521 25.8981 46.2866 25.6606 46.1049 25.3017L44.3206 26.2051ZM47.0667 27.8981C48.2699 27.8981 49.3065 27.2051 49.8128 26.2051L48.0284 25.3017C47.8467 25.6606 47.4812 25.8981 47.0667 25.8981V27.8981ZM48.6519 26.7167C49.5784 26.9751 50.4156 27.4554 51.1029 28.0994L52.4704 26.64C51.5542 25.7815 50.4341 25.1374 49.1893 24.7902L48.6519 26.7167ZM50.8884 26.9302C50.6863 27.3433 50.5733 27.8076 50.5733 28.2954H52.5733C52.5733 28.1186 52.6139 27.9544 52.6849 27.8092L50.8884 26.9302ZM50.5733 28.2954C50.5733 29.998 51.9451 31.3913 53.6533 31.3913V29.3913C53.064 29.3913 52.5733 28.9078 52.5733 28.2954H50.5733ZM53.6533 31.3913C53.6679 31.3913 53.6825 31.3912 53.6969 31.391L53.6681 29.3912C53.6632 29.3912 53.6582 29.3913 53.6533 29.3913V31.3913ZM52.7278 30.6887C52.9044 31.2551 53 31.8589 53 32.4872H55C55 31.6549 54.8732 30.8504 54.6372 30.0935L52.7278 30.6887ZM53 32.4872C53 32.9021 52.9583 33.3061 52.8792 33.6956L54.8393 34.0935C54.9448 33.5738 55 33.0364 55 32.4872H53ZM53.9578 32.8994C53.8573 32.8895 53.7557 32.8844 53.6533 32.8844V34.8844C53.69 34.8844 53.7258 34.8862 53.7607 34.8897L53.9578 32.8994ZM53.6533 32.8844C51.9451 32.8844 50.5733 34.2777 50.5733 35.9803H52.5733C52.5733 35.3679 53.064 34.8844 53.6533 34.8844V32.8844ZM50.5733 35.9803C50.5733 36.7375 50.8451 37.4344 51.2961 37.9731L52.8296 36.6891C52.6697 36.4982 52.5733 36.2524 52.5733 35.9803H50.5733ZM51.3397 36.6404C50.6375 37.3757 49.7524 37.9287 48.7609 38.2261L49.3356 40.1418C50.6676 39.7422 51.8507 39.0011 52.786 38.0217L51.3397 36.6404ZM50.0015 38.8816C49.6067 37.6372 48.4468 36.7269 47.0667 36.7269V38.7269C47.5419 38.7269 47.9536 39.0405 48.0951 39.4863L50.0015 38.8816ZM47.0667 36.7269C45.6865 36.7269 44.5266 37.6372 44.1319 38.8816L46.0382 39.4863C46.1797 39.0405 46.5915 38.7269 47.0667 38.7269V36.7269ZM47.0667 35.9325C48.9663 35.9325 50.4933 34.3828 50.4933 32.4873H48.4933C48.4933 33.2926 47.8474 33.9325 47.0667 33.9325V35.9325ZM50.4933 32.4873C50.4933 30.5917 48.9663 29.0421 47.0667 29.0421V31.0421C47.8474 31.0421 48.4933 31.6819 48.4933 32.4873H50.4933ZM47.0667 29.0421C45.167 29.0421 43.64 30.5917 43.64 32.4873H45.64C45.64 31.6819 46.2859 31.0421 47.0667 31.0421V29.0421ZM43.64 32.4873C43.64 34.3828 45.167 35.9325 47.0667 35.9325V33.9325C46.2859 33.9325 45.64 33.2926 45.64 32.4873H43.64Z" fill="#1C8785"/>
</svg>
