<svg width="59" height="58" viewBox="0 0 59 58" fill="none" xmlns="http://www.w3.org/2000/svg">
<path d="M29.5 35.7009V43.359M29.5 35.7009L37.3974 31.8718M29.5 35.7009L21.6026 31.8718M29.5 43.359L36.9927 39.7262C37.2402 39.6061 37.3974 39.3552 37.3974 39.0801V31.8718M29.5 43.359L22.0073 39.7262C21.7598 39.6061 21.6026 39.3552 21.6026 39.0801V31.8718M37.3974 31.8718L29.8211 28.0836C29.619 27.9826 29.381 27.9826 29.1789 28.0836L21.6026 31.8718M37.3974 23.8547V31.5128M37.3974 23.8547L45.2949 20.0256M37.3974 23.8547L29.5 20.0256M37.3974 31.5128L44.8901 27.88C45.1377 27.76 45.2949 27.5091 45.2949 27.234V20.0256M37.3974 31.5128L29.9047 27.88C29.6572 27.76 29.5 27.5091 29.5 27.234M45.2949 20.0256L37.7185 16.2375C37.5164 16.1364 37.2785 16.1364 37.0764 16.2375L29.5 20.0256M29.5 20.0256V27.234M29.5 20.0256L21.6026 23.8547M29.5 20.0256L21.9236 16.2375C21.7215 16.1364 21.4836 16.1364 21.2815 16.2375L13.7051 20.0256M29.5 27.234C29.5 27.5091 29.3428 27.76 29.0953 27.88L21.6026 31.5128M21.6026 23.8547V31.5128M21.6026 23.8547L13.7051 20.0256M21.6026 31.5128L14.1099 27.88C13.8623 27.76 13.7051 27.5091 13.7051 27.234V20.0256M7.24359 20.7436C7.96154 18.5897 9.75641 15.359 11.1923 13.9231M52.1154 20.7436C51.3974 18.5897 49.6026 15.359 48.1667 13.9231M14.4231 10.4965C16.1218 8.99017 19.2916 7.08968 21.253 6.5641M44.2274 10.4965C42.5287 8.99017 39.3589 7.08968 37.3974 6.5641M7.24359 37.6154C7.96154 39.7692 9.75641 43 11.1923 44.4359M52.1154 37.6154C51.3974 39.7692 49.6026 43 48.1667 44.4359M14.4231 47.8625C16.1218 49.3688 19.2916 51.2693 21.253 51.7949M44.2274 47.8625C42.5287 49.3688 39.3589 51.2693 37.3975 51.7949M33.8077 5.30769C33.8077 7.68677 31.8791 9.61539 29.5 9.61539C27.1209 9.61539 25.1923 7.68677 25.1923 5.30769C25.1923 2.92862 27.1209 1 29.5 1C31.8791 1 33.8077 2.92862 33.8077 5.30769ZM57.5 29C57.5 31.3791 55.5714 33.3077 53.1923 33.3077C50.8132 33.3077 48.8846 31.3791 48.8846 29C48.8846 26.6209 50.8132 24.6923 53.1923 24.6923C55.5714 24.6923 57.5 26.6209 57.5 29ZM10.1154 29C10.1154 31.3791 8.18677 33.3077 5.80769 33.3077C3.42862 33.3077 1.5 31.3791 1.5 29C1.5 26.6209 3.42862 24.6923 5.80769 24.6923C8.18677 24.6923 10.1154 26.6209 10.1154 29ZM33.8077 52.6923C33.8077 55.0714 31.8791 57 29.5 57C27.1209 57 25.1923 55.0714 25.1923 52.6923C25.1923 50.3132 27.1209 48.3846 29.5 48.3846C31.8791 48.3846 33.8077 50.3132 33.8077 52.6923Z" stroke="#1C8785" stroke-width="2" stroke-linecap="round"/>
</svg>
