<svg width="56" height="56" viewBox="0 0 56 56" fill="none" xmlns="http://www.w3.org/2000/svg">
<path d="M2.65 13.05H8.52053L11.1889 9.8H21.5958L23.9974 13.05H31.25M33.85 13.05H35.15M37.75 13.05H53.675M9.8 20.2L12.3445 26.5612C12.3656 26.614 12.4395 26.6162 12.4636 26.5647L14.9412 21.3C14.9646 21.2502 15.0354 21.2502 15.0588 21.3L17.5364 26.5647C17.5605 26.6162 17.6344 26.614 17.6555 26.5612L20.2 20.2M22.8 20.2L25.3445 26.5612C25.3656 26.614 25.4395 26.6162 25.4636 26.5647L27.9412 21.3C27.9646 21.2502 28.0354 21.2502 28.0588 21.3L30.5364 26.5647C30.5605 26.6162 30.6344 26.614 30.6555 26.5612L33.2 20.2M35.8 20.2L38.3445 26.5612C38.3656 26.614 38.4395 26.6162 38.4636 26.5647L40.9412 21.3C40.9646 21.2502 41.0354 21.2502 41.0588 21.3L43.5364 26.5647C43.5605 26.6162 43.6344 26.614 43.6555 26.5612L46.2 20.2M9.8 31.9H46.2M9.8 37.1H30.925M9.8 42.3H35.8M4.6 54H51.4C52.8359 54 54 52.8359 54 51.4V4.6C54 3.16406 52.8359 2 51.4 2H4.6C3.16406 2 2 3.16406 2 4.6V51.4C2 52.8359 3.16406 54 4.6 54ZM35.8 7.85C35.8 8.92696 34.927 9.8 33.85 9.8C32.773 9.8 31.9 8.92696 31.9 7.85C31.9 6.77304 32.773 5.9 33.85 5.9C34.927 5.9 35.8 6.77304 35.8 7.85ZM42.3 7.85C42.3 8.92696 41.427 9.8 40.35 9.8C39.273 9.8 38.4 8.92696 38.4 7.85C38.4 6.77304 39.273 5.9 40.35 5.9C41.427 5.9 42.3 6.77304 42.3 7.85ZM48.8 7.85C48.8 8.92696 47.927 9.8 46.85 9.8C45.773 9.8 44.9 8.92696 44.9 7.85C44.9 6.77304 45.773 5.9 46.85 5.9C47.927 5.9 48.8 6.77304 48.8 7.85ZM39.0556 37.1752L39.5671 44.0097C39.5712 44.0635 39.6353 44.0893 39.6754 44.0532L41.6851 42.2458L46.1183 46.8021C46.1438 46.8283 46.1859 46.8283 46.2114 46.8021L48.7559 44.187C48.7804 44.1618 48.7804 44.1216 48.7559 44.0963L44.3203 39.5375L46.315 37.7437C46.3576 37.7054 46.3334 37.6347 46.2763 37.6305L39.1252 37.1055C39.0856 37.1026 39.0527 37.1356 39.0556 37.1752Z" stroke="#1C8785" stroke-width="2" stroke-linecap="round"/>
</svg>
