<svg width="95" height="46" viewBox="0 0 95 46" fill="none" xmlns="http://www.w3.org/2000/svg">
<g clip-path="url(#clip0_342_1706)">
<path d="M5.69704 7.48347C5.69704 7.8503 5.62305 8.14376 5.47508 8.43722C5.3271 8.73068 5.17913 8.87741 4.95717 9.09751C4.7352 9.24424 4.51324 9.39097 4.29128 9.5377C4.06931 9.61106 3.77336 9.68443 3.47741 9.68443V10.3447H2.21963V9.68443C1.84969 9.61106 1.47975 9.5377 1.1838 9.39097C0.887851 9.24424 0.665888 9.09751 0.517913 8.87741C0.369938 8.65732 0.221963 8.43722 0.147975 8.14376C0.0739875 7.8503 0 7.55684 0 7.19001V4.4755C0 4.10867 0.0739876 3.81521 0.221963 3.52175C0.29595 3.30165 0.517913 3.08156 0.665888 2.93483C0.887851 2.71473 1.10981 2.64137 1.40576 2.49464C1.70171 2.34791 1.92368 2.34791 2.21963 2.34791V1.90771H3.5514V2.34791C3.84735 2.34791 4.06931 2.42127 4.36527 2.49464C4.58723 2.568 4.80919 2.71473 5.03115 2.93483C5.25312 3.08156 5.40109 3.37502 5.54907 3.59512C5.69704 3.88858 5.77103 4.18204 5.77103 4.54886V7.48347H5.69704ZM2.21963 3.37502C1.92368 3.44838 1.70171 3.52175 1.47975 3.66848C1.33178 3.88858 1.25779 4.10867 1.25779 4.40213V7.6302C1.25779 7.77693 1.25779 7.92366 1.33178 8.07039C1.40576 8.21712 1.47975 8.29049 1.55374 8.36385C1.62773 8.43722 1.7757 8.51059 1.84969 8.58395C1.99766 8.65732 2.07165 8.65732 2.21963 8.65732V3.37502ZM4.51324 4.40213C4.51324 4.10867 4.43925 3.88858 4.21729 3.66848C4.06931 3.52175 3.84735 3.44838 3.5514 3.37502V8.58395C3.62539 8.58395 3.77336 8.51059 3.84735 8.51059C3.99533 8.43722 4.06931 8.36386 4.1433 8.29049C4.21729 8.21712 4.29128 8.14376 4.36527 7.99703C4.43925 7.8503 4.43925 7.77693 4.43925 7.6302V4.40213H4.51324Z" fill="white"/>
<path d="M12.282 8.14376C12.282 8.87741 12.134 9.46433 11.7641 9.83116C11.3941 10.198 10.8762 10.4181 10.2103 10.4181C9.47045 10.4181 8.95253 10.2714 8.65658 9.90453C8.36063 9.5377 8.13867 9.02414 8.13867 8.36385V4.10867C8.13867 3.81521 8.21266 3.44838 8.28665 3.22829C8.36063 2.93483 8.50861 2.71473 8.65658 2.49464C8.80456 2.27454 9.02652 2.12781 9.32247 2.05445C9.61842 1.98108 9.91437 1.90771 10.2843 1.90771C10.6542 1.90771 11.0242 1.98108 11.2461 2.05445C11.4681 2.05445 11.6901 2.20118 11.838 2.42127C11.986 2.64137 12.134 2.86146 12.208 3.15492C12.282 3.44839 12.282 3.74185 12.282 4.10867V8.14376ZM10.9502 3.96194C10.9502 3.74185 10.8762 3.52175 10.8022 3.30165C10.7282 3.08156 10.5063 3.00819 10.2103 3.00819C10.0623 3.00819 9.91437 3.00819 9.84039 3.08156C9.69241 3.22829 9.61842 3.30165 9.61842 3.44838C9.54444 3.52175 9.54443 3.66848 9.54443 3.81521C9.54443 3.96194 9.54443 4.03531 9.54443 4.18204V8.43722C9.54443 8.65732 9.61842 8.87741 9.69241 9.02414C9.7664 9.17087 9.98836 9.3176 10.2843 9.3176C10.5803 9.3176 10.7282 9.24424 10.8762 9.02414C11.0242 8.87741 11.0242 8.65732 11.0242 8.36385V3.96194H10.9502Z" fill="white"/>
<path d="M17.6091 10.3447V6.67646H16.0554V10.3447H14.7976V1.90771H16.1294V5.42925H17.6831V1.90771H19.0149V10.3447H17.6091Z" fill="white"/>
<path d="M22.1223 10.3446V11.9586H21.0125V9.24412L21.5304 9.17075C21.7523 8.95065 21.9003 8.65719 21.9743 8.36373C22.0483 8.07027 22.1223 7.63008 22.1223 7.11652L22.2702 1.98096H26.1176V9.24412H26.6355V12.032H25.5257V10.418H22.1223V10.3446ZM23.3061 7.04316C23.3061 7.55672 23.2321 7.92354 23.2321 8.29037C23.1581 8.65719 23.0841 8.95065 22.9361 9.17075H24.7858V3.1548H23.454L23.3061 7.04316Z" fill="white"/>
<path d="M34.6263 1.83398C34.9962 1.83398 35.2922 1.90735 35.5142 1.98071C35.7361 2.05408 35.9581 2.20081 36.1801 2.34754C36.328 2.49427 36.476 2.71437 36.55 2.93446C36.624 3.15456 36.698 3.44802 36.698 3.74148L35.4402 4.03494C35.4402 3.74148 35.3662 3.44802 35.2922 3.30129C35.1442 3.08119 34.9963 3.00783 34.7003 3.00783C34.5523 3.00783 34.4044 3.00783 34.3304 3.08119C34.2564 3.15456 34.1824 3.22792 34.1084 3.30129C34.0344 3.37465 34.0344 3.52138 34.0344 3.59475C34.0344 3.74148 34.0344 3.81485 34.0344 3.96158V8.21676C34.0344 8.29012 34.0344 8.36349 34.0344 8.51022C34.0344 8.58359 34.1084 8.73032 34.1084 8.80368C34.1824 8.87705 34.2564 8.95041 34.3304 9.02378C34.4044 9.09714 34.5523 9.09714 34.7003 9.09714C35.2182 9.09714 35.4402 8.73032 35.4402 8.07003C35.6621 8.14339 35.8841 8.14339 36.1061 8.14339C36.328 8.14339 36.55 8.21676 36.772 8.21676C36.772 8.87705 36.55 9.3906 36.254 9.75743C35.8841 10.1243 35.4402 10.3444 34.7743 10.3444C34.0344 10.3444 33.5165 10.1976 33.2206 9.83079C32.8506 9.46397 32.7026 8.95041 32.7026 8.29013V4.10831C32.7026 3.81485 32.7026 3.52138 32.7766 3.22792C32.8506 2.93446 32.9986 2.71437 33.1466 2.49427C33.2945 2.27418 33.5165 2.12745 33.8124 1.98071C33.8864 1.90735 34.1824 1.83398 34.6263 1.83398Z" fill="white"/>
<path d="M42.9128 8.14376C42.9128 8.87741 42.7649 9.46433 42.3949 9.83116C42.025 10.198 41.5071 10.4181 40.8412 10.4181C40.1013 10.4181 39.5834 10.2714 39.2874 9.90453C38.9915 9.5377 38.7695 9.02414 38.7695 8.36385V4.10867C38.7695 3.81521 38.8435 3.44838 38.9175 3.22829C38.9915 2.93483 39.1395 2.71473 39.2874 2.49464C39.4354 2.27454 39.6574 2.12781 39.9533 2.05445C40.2493 1.98108 40.5452 1.90771 40.9152 1.90771C41.2851 1.90771 41.655 1.98108 41.877 2.05445C42.173 2.12781 42.3209 2.27454 42.5429 2.49464C42.6909 2.71473 42.8388 2.93483 42.9128 3.22829C42.9128 3.37502 42.9128 3.74185 42.9128 4.03531V8.14376ZM41.5811 3.96194C41.5811 3.74185 41.5071 3.52175 41.4331 3.30165C41.3591 3.08156 41.1371 3.00819 40.8412 3.00819C40.6932 3.00819 40.5452 3.00819 40.4712 3.08156C40.3973 3.15492 40.3233 3.22829 40.2493 3.30165C40.1753 3.37502 40.1753 3.52175 40.1013 3.66848C40.1013 3.81521 40.1013 3.88858 40.1013 4.03531V8.29049C40.1013 8.51059 40.1753 8.73068 40.2493 8.87741C40.3973 9.02414 40.5452 9.17087 40.8412 9.17087C41.1371 9.17087 41.2851 9.09751 41.4331 8.87741C41.5811 8.73068 41.5811 8.51059 41.5811 8.21713V3.96194Z" fill="white"/>
<path d="M46.0205 10.3446V11.9586H44.9106V9.24412L45.4286 9.17075C45.6505 8.95065 45.7985 8.65719 45.8725 8.36373C45.9465 8.07027 46.0205 7.63008 46.0205 7.11652L46.1684 1.98096H50.0158V9.24412H50.5337V12.032H49.4239V10.418H46.0205V10.3446ZM47.2043 7.04316C47.2043 7.55672 47.1303 7.92354 47.1303 8.29037C47.0563 8.65719 46.9823 8.95065 46.8343 9.17075H48.684V3.1548H47.3522L47.2043 7.04316Z" fill="white"/>
<path d="M52.6792 10.3447V1.90771H56.4526V3.15492H54.011V5.42925H56.1566V6.67646H54.011V9.09751H56.4526V10.3447H52.6792Z" fill="white"/>
<path d="M61.7059 5.0622L59.9301 10.3445H58.6724V1.9075H59.9301V7.26316L61.7059 1.9075H62.9636V10.3445H61.6319L61.7059 5.0622ZM60.0781 0C60.0781 0.0733652 60.0781 0.14673 60.1521 0.293461C60.2261 0.366826 60.2261 0.440191 60.3001 0.586922C60.3741 0.660287 60.4481 0.733652 60.5221 0.807018C60.596 0.880383 60.744 0.880383 60.818 0.880383C60.966 0.880383 61.04 0.880383 61.1139 0.807018C61.1879 0.733652 61.2619 0.660287 61.3359 0.586922C61.4099 0.513557 61.4839 0.440191 61.4839 0.293461C61.4839 0.220096 61.5579 0.14673 61.5579 0H62.5197C62.5197 0.14673 62.4457 0.366826 62.3717 0.586922C62.4457 0.733652 62.2978 0.953748 62.1498 1.10048C62.0018 1.24721 61.8538 1.39394 61.6319 1.54067C61.4099 1.61404 61.1879 1.6874 60.892 1.6874C60.596 1.6874 60.3001 1.61404 60.0781 1.54067C59.8562 1.4673 59.7082 1.32057 59.5602 1.10048C59.4122 0.953748 59.3382 0.733652 59.2643 0.586922C59.1903 0.366826 59.1163 0.14673 59.1163 0H60.0781Z" fill="white"/>
<path d="M67.5506 1.83398C67.9206 1.83398 68.2165 1.90735 68.4385 1.98071C68.6604 2.05408 68.8824 2.20081 69.1044 2.34754C69.2523 2.49427 69.4003 2.71437 69.4743 2.93446C69.5483 3.15456 69.6223 3.44802 69.6223 3.74148L68.3645 4.03494C68.3645 3.74148 68.2905 3.44802 68.2165 3.30129C68.0685 3.08119 67.9206 3.00783 67.6246 3.00783C67.4766 3.00783 67.3287 3.00783 67.2547 3.08119C67.1807 3.15456 67.1067 3.22792 67.0327 3.30129C66.9587 3.37465 66.9587 3.52138 66.9587 3.59475C66.9587 3.74148 66.9587 3.81485 66.9587 3.96158V8.21676C66.9587 8.29012 66.9587 8.36349 66.9587 8.51022C66.9587 8.58359 67.0327 8.73032 67.0327 8.80368C67.1067 8.87705 67.1807 8.95041 67.2547 9.02378C67.3287 9.09714 67.4766 9.09714 67.6246 9.09714C68.1425 9.09714 68.3645 8.73032 68.3645 8.07003C68.5865 8.14339 68.8084 8.14339 69.0304 8.14339C69.2523 8.14339 69.4743 8.21676 69.6963 8.21676C69.6963 8.87705 69.4743 9.3906 69.1784 9.75743C68.8084 10.1243 68.3645 10.3444 67.6986 10.3444C66.9587 10.3444 66.4408 10.1976 66.1449 9.83079C65.7749 9.46397 65.627 8.95041 65.627 8.29013V4.10831C65.627 3.81485 65.627 3.52138 65.7009 3.22792C65.7749 2.93446 65.9229 2.71437 66.0709 2.49427C66.2189 2.27418 66.4408 2.12745 66.7368 1.98071C66.8108 1.90735 67.1807 1.83398 67.5506 1.83398Z" fill="white"/>
<path d="M73.9133 3.15492V10.3447H72.5815V3.15492H71.1758V1.90771H75.2451V3.15492H73.9133Z" fill="white"/>
<path d="M80.4246 5.9428C80.7946 6.08953 81.0905 6.30963 81.1645 6.60309C81.3125 6.96992 81.3865 7.33674 81.3865 7.77693C81.3865 8.65732 81.1645 9.3176 80.7946 9.68443C80.4246 10.1246 79.8327 10.2714 79.0189 10.2714H77.2432V1.90771H79.0929C79.8327 1.90771 80.4246 2.12781 80.7206 2.49464C81.0905 2.86146 81.2385 3.44838 81.2385 4.18204C81.2385 4.54886 81.1645 4.91569 81.0165 5.20915C81.0165 5.50261 80.7206 5.72271 80.4246 5.9428ZM80.0547 4.2554C80.0547 3.88858 79.9807 3.59512 79.8327 3.44838C79.6848 3.30165 79.3888 3.22829 79.0929 3.22829H78.6489V5.42925H79.0929C79.4628 5.42925 79.6848 5.35588 79.8327 5.13579C79.9807 4.84232 80.0547 4.54886 80.0547 4.2554ZM80.1287 7.6302C80.1287 7.26338 80.0547 6.96992 79.9067 6.74982C79.7587 6.52972 79.5368 6.45636 79.1668 6.45636H78.6489V9.09751H79.1668C79.3888 9.09751 79.5368 9.02414 79.6847 8.95078C79.8327 8.87741 79.9067 8.80405 79.9807 8.65732C80.0547 8.51059 80.1287 8.36386 80.1287 8.21712C80.1287 8.07039 80.1287 7.8503 80.1287 7.6302Z" fill="white"/>
<path d="M86.9353 5.06242L85.1596 10.3447H83.9019V1.90771H85.1596V7.26338H85.2336L87.0093 1.90771H88.2671V10.3447H86.9353V5.06242Z" fill="white"/>
<path d="M90.4868 10.3446L90.9307 7.70344C91.0047 7.40998 91.0787 7.18989 91.2267 6.96979C91.3747 6.7497 91.5226 6.5296 91.7446 6.45624C91.3747 6.30951 91.0787 6.01605 90.9307 5.72258C90.7828 5.42912 90.7088 4.98893 90.7088 4.54874C90.7088 3.74172 90.9307 3.08144 91.3007 2.64124C91.6706 2.20105 92.2625 1.98096 93.0024 1.98096H94.9261V10.418H93.5943V6.7497H93.2244C93.0024 6.7497 92.7804 6.82306 92.5585 7.04316C92.3365 7.18989 92.2625 7.55671 92.1145 7.99691L91.7446 10.3446H90.4868ZM93.0764 3.1548C92.7064 3.1548 92.4105 3.30153 92.2625 3.52163C92.1145 3.74172 92.0406 4.03518 92.0406 4.47537C92.0406 4.91557 92.1145 5.13566 92.3365 5.35576C92.5585 5.50249 92.7804 5.57585 93.0764 5.57585H93.5943V3.1548H93.0764Z" fill="white"/>
<path d="M3.99529 17.3141L1.77566 23.8436H0.221924V13.4258H1.84965V20.0287H1.92364L4.14326 13.4258H5.77099V23.8436H4.06928L3.99529 17.3141Z" fill="white"/>
<path d="M13.6876 23.8436V19.295H11.8379V23.8436H10.2102V13.4258H11.8379V17.7543H13.7616V13.4258H15.3893V23.8436H13.6876Z" fill="white"/>
<path d="M23.454 23.8436V19.295H21.5303V23.8436H19.9026V13.4258H21.5303V17.7543H23.454V13.4258H25.0817V23.8436H23.454Z" fill="white"/>
<path d="M34.7004 21.2026C34.7004 22.083 34.4784 22.8167 34.1085 23.2568C33.6645 23.697 33.0726 23.9171 32.1108 23.9171C31.2229 23.9171 30.5571 23.697 30.1871 23.2568C29.8172 22.8167 29.5952 22.1564 29.5952 21.3493V16.1404C29.5952 15.7002 29.6692 15.3334 29.7432 15.0399C29.8172 14.6731 29.9652 14.3797 30.1871 14.1596C30.4091 13.9395 30.631 13.7194 31.001 13.5726C31.2969 13.4259 31.7409 13.3525 32.1848 13.3525C32.7027 13.3525 33.0726 13.4259 33.4426 13.5726C33.7385 13.7194 34.0345 13.8661 34.2564 14.0862C34.4784 14.3063 34.6264 14.5997 34.7004 14.9666C34.7743 15.3334 34.8483 15.7002 34.8483 16.1404V21.2026H34.7004ZM33.0726 15.9937C33.0726 15.7002 32.9986 15.4801 32.8507 15.1867C32.7027 14.9666 32.4807 14.8198 32.1108 14.8198C31.8888 14.8198 31.7409 14.8932 31.6669 14.9666C31.5189 15.0399 31.4449 15.1867 31.3709 15.26C31.2969 15.4068 31.2229 15.5535 31.2229 15.7002C31.2229 15.847 31.149 15.9937 31.149 16.1404V21.4227C31.149 21.7162 31.2229 21.9363 31.3709 22.1564C31.5189 22.3765 31.7409 22.4498 32.1108 22.4498C32.4807 22.4498 32.7027 22.3031 32.8507 22.083C32.9986 21.8629 33.0726 21.5694 33.0726 21.276V15.9937Z" fill="white"/>
<path d="M43.0607 18.4146C43.5047 18.5613 43.8746 18.8548 44.0226 19.295C44.1705 19.7352 44.3185 20.1754 44.3185 20.7623C44.3185 21.8628 44.0966 22.6698 43.5786 23.1834C43.1347 23.6969 42.3948 23.917 41.433 23.917H39.2134V13.4258H41.507C42.4688 13.4258 43.1347 13.6459 43.5047 14.1594C43.9486 14.673 44.1705 15.3333 44.1705 16.287C44.1705 16.8006 44.0966 17.1674 43.9486 17.5342C43.8006 17.9011 43.5047 18.1945 43.0607 18.3413V18.4146ZM42.6168 16.287C42.6168 15.7735 42.5428 15.48 42.3209 15.2599C42.0989 15.0398 41.8029 14.9665 41.359 14.9665H40.8411V17.6076H41.359C41.8029 17.6076 42.0989 17.4609 42.3209 17.2408C42.5428 17.094 42.6168 16.7272 42.6168 16.287ZM42.6908 20.5422C42.6908 20.0287 42.6168 19.6618 42.3948 19.4417C42.2469 19.2216 41.8769 19.0749 41.433 19.0749H40.8411V22.303H41.507C41.8029 22.303 41.9509 22.2296 42.1729 22.1562C42.3209 22.0829 42.4688 21.9361 42.5428 21.7894C42.6168 21.6427 42.6908 21.4226 42.6908 21.2025C42.6908 21.0558 42.6908 20.8357 42.6908 20.5422Z" fill="white"/>
<path d="M52.605 23.8436L52.1611 21.6427H50.2374C50.1634 22.0095 50.0895 22.3763 50.0155 22.7432C49.9415 23.11 49.8675 23.4768 49.7935 23.8436H48.0918C48.4617 22.0829 48.8317 20.3221 49.1276 18.6347C49.4976 16.8739 49.8675 15.1865 50.1635 13.4258H52.0131L54.1588 23.8436H52.605ZM51.1253 15.8468C51.0513 16.5805 50.9033 17.3141 50.8293 17.9744C50.6814 18.7081 50.6074 19.4417 50.4594 20.1754H51.9391L51.2733 15.8468H51.1253Z" fill="white"/>
<path d="M63.3334 13.4258V22.3763H63.9993V25.8979H62.5935V23.917H58.1543V13.4258H59.782V22.3763H61.6317V13.4258H63.3334Z" fill="white"/>
<path d="M71.6938 17.3141L69.4741 23.8436H67.9204V13.4258H69.5481V20.0287L71.7678 13.4258H73.3955V23.8436H71.7678L71.6938 17.3141Z" fill="white"/>
<path d="M77.4648 23.8436L78.0567 20.5422C78.1307 20.1754 78.2047 19.8819 78.4267 19.5885C78.5747 19.295 78.7966 19.0749 79.0926 18.9282C78.5747 18.7081 78.2787 18.4146 78.0567 18.0478C77.9088 17.6076 77.7608 17.1674 77.7608 16.5805C77.7608 15.5534 77.9828 14.7464 78.5007 14.2328C79.0186 13.7192 79.6845 13.4258 80.5723 13.4258H83.0139V23.8436H81.3862V19.3684H80.9423C80.6463 19.3684 80.4244 19.4417 80.1284 19.6618C79.9064 19.8819 79.6845 20.2487 79.6105 20.8357L79.0926 23.7703H77.4648V23.8436ZM80.7203 14.9665C80.2024 14.9665 79.9064 15.1132 79.6845 15.4066C79.4625 15.7001 79.3885 16.0669 79.3885 16.5805C79.3885 17.094 79.5365 17.4609 79.7585 17.6076C79.9804 17.8277 80.3504 17.9011 80.7203 17.9011H81.3862V14.9665H80.7203Z" fill="white"/>
<path d="M90.6348 21.5694L89.8949 19.6619L89.2291 17.8278H89.1551V23.8438H87.5273V13.4259H89.1551L90.3389 16.3605L91.1527 18.6348H91.2267L92.1146 16.2871L93.2244 13.3525H94.7781V23.7704H93.1504V17.7545H93.0764L92.4105 19.5886L91.6706 21.4961H90.6348V21.5694Z" fill="white"/>
<path d="M94.852 26.9985C71.9898 49.1548 26.2655 45.3398 9.69233 26.9985H0.221924C12.7258 40.1309 30.7048 45.1197 45.7983 45.78C47.352 45.8534 48.9057 45.8534 50.3855 45.8534C60.1518 45.7067 71.028 43.5791 80.4984 38.5902C85.8995 35.8024 90.8567 31.9874 94.852 26.9985Z" fill="#EA2227"/>
<path d="M94.852 26.9985C94.852 27.0719 94.852 27.0719 94.852 26.9985C94.4821 27.292 94.1122 27.5121 93.8162 27.7322C68.8824 44.2394 34.2562 41.0113 19.3848 26.9985H9.69238C26.2656 45.3398 71.9899 49.2282 94.852 26.9985Z" fill="#25A8E0"/>
<path d="M89.377 29.3462C78.0569 33.6748 67.4027 35.5823 58.0802 35.6556C45.0584 35.729 34.7742 32.2808 29.2991 26.9985H21.0865H19.3848C34.1823 40.8646 68.4385 44.166 93.2983 28.0256C93.4463 27.9523 93.6683 27.8056 93.8162 27.6588C94.1862 27.4387 94.4821 27.2186 94.8521 26.9985C93.0024 27.8789 91.1527 28.6126 89.377 29.3462Z" fill="white"/>
<path d="M29.2991 26.9983C34.7001 32.1339 44.7625 35.582 57.5623 35.582C57.7103 35.582 57.9322 35.582 58.0802 35.582C67.4026 35.5087 78.0568 33.6012 89.3769 29.2726C91.1526 28.539 93.0023 27.8053 94.852 26.9983C90.8567 31.9138 85.8995 35.7288 80.4244 38.59C70.954 43.5788 60.0779 45.7064 50.3115 45.8532C49.9416 45.8532 49.5716 45.8532 49.2017 45.8532C48.0919 45.8532 46.9081 45.8532 45.7243 45.7798C30.6308 45.1195 12.7258 40.1307 0.147962 26.9983H9.54438H19.2367H20.9385H29.2991ZM29.2991 26.9249H21.0864H19.3847H9.69236H0.22195C0.147962 26.9249 0.147962 26.9249 0.0739746 26.9983C0.0739746 27.0717 0.0739746 27.0717 0.0739746 27.145C5.99298 33.2343 13.3177 38.0031 21.9743 41.2311C29.2251 43.9457 37.5117 45.5597 45.7243 45.9265C46.9081 45.9999 48.0179 45.9999 49.2017 45.9999C49.5716 45.9999 49.9416 45.9999 50.3115 45.9999C55.4906 45.9265 60.5958 45.3396 65.479 44.1658C70.8801 42.9185 75.9112 41.0844 80.4244 38.7367C86.1955 35.6554 91.0786 31.767 94.852 27.0717C94.852 27.0717 94.852 27.0717 94.852 26.9983C94.852 26.9983 94.852 26.9983 94.852 26.9249C94.852 26.9249 94.852 26.9249 94.852 26.8516C94.852 26.8516 94.852 26.8516 94.778 26.8516H94.704C92.9283 27.6586 91.0787 28.4656 89.229 29.1259C78.7227 33.161 67.9206 35.3619 58.0062 35.4353C57.8582 35.4353 57.6363 35.4353 57.4883 35.4353C45.2804 35.4353 35.0701 32.2806 29.373 26.8516C29.373 26.9249 29.373 26.9249 29.2991 26.9249Z" fill="#CDCCCB"/>
</g>
<defs>
<clipPath id="clip0_342_1706">
<rect width="95" height="46" fill="white"/>
</clipPath>
</defs>
</svg>
