<svg width="160" height="62" viewBox="0 0 160 62" fill="none" xmlns="http://www.w3.org/2000/svg">
<g clip-path="url(#clip0_145_183)">
<path d="M82.83 20H85.68L78.69 31.94V41H76.14V31.97L69.15 20H72L77.4 29.72L82.83 20Z" fill="white"/>
<path d="M83.8781 34.1C83.8781 32.7 84.1881 31.46 84.8081 30.38C85.4481 29.3 86.3081 28.45 87.3881 27.83C88.4681 27.21 89.6781 26.9 91.0181 26.9C92.3781 26.9 93.5881 27.21 94.6481 27.83C95.7281 28.45 96.5781 29.3 97.1981 30.38C97.8381 31.46 98.1581 32.7 98.1581 34.1C98.1581 35.48 97.8381 36.72 97.1981 37.82C96.5781 38.9 95.7281 39.75 94.6481 40.37C93.5881 40.99 92.3781 41.3 91.0181 41.3C89.6781 41.3 88.4681 40.99 87.3881 40.37C86.3081 39.75 85.4481 38.9 84.8081 37.82C84.1881 36.72 83.8781 35.48 83.8781 34.1ZM86.3081 34.1C86.3081 35.06 86.5081 35.91 86.9081 36.65C87.3281 37.39 87.8881 37.98 88.5881 38.42C89.3081 38.84 90.1181 39.05 91.0181 39.05C91.9181 39.05 92.7181 38.84 93.4181 38.42C94.1381 37.98 94.6981 37.39 95.0981 36.65C95.5181 35.91 95.7281 35.06 95.7281 34.1C95.7281 33.14 95.5181 32.29 95.0981 31.55C94.6981 30.79 94.1381 30.2 93.4181 29.78C92.7181 29.36 91.9181 29.15 91.0181 29.15C90.1181 29.15 89.3081 29.36 88.5881 29.78C87.8881 30.2 87.3281 30.79 86.9081 31.55C86.5081 32.29 86.3081 33.14 86.3081 34.1Z" fill="white"/>
<path d="M103.855 35.6C103.855 36.7 104.105 37.55 104.605 38.15C105.105 38.75 105.835 39.05 106.795 39.05C107.495 39.05 108.105 38.91 108.625 38.63C109.165 38.33 109.575 37.92 109.855 37.4C110.155 36.88 110.305 36.28 110.305 35.6V27.2H112.705V41H110.305V38.84C109.845 39.66 109.275 40.28 108.595 40.7C107.915 41.1 107.115 41.3 106.195 41.3C104.755 41.3 103.605 40.81 102.745 39.83C101.885 38.85 101.455 37.54 101.455 35.9V27.2H103.855V35.6Z" fill="white"/>
<path d="M119.617 27.2V41H117.217V27.2H119.617ZM123.787 29.84C123.467 29.6 123.177 29.43 122.917 29.33C122.657 29.21 122.327 29.15 121.927 29.15C121.327 29.15 120.857 29.3 120.517 29.6C120.177 29.9 119.937 30.31 119.797 30.83C119.677 31.35 119.617 31.94 119.617 32.6H118.537C118.537 31.5 118.727 30.53 119.107 29.69C119.507 28.83 120.017 28.15 120.637 27.65C121.257 27.15 121.887 26.9 122.527 26.9C123.027 26.9 123.487 26.97 123.907 27.11C124.347 27.23 124.747 27.48 125.107 27.86L123.787 29.84Z" fill="white"/>
<path d="M124.642 22.4V20H137.992V22.4H132.592V41H130.042V22.4H124.642Z" fill="white"/>
<path d="M138.629 36.74C138.629 37.26 138.749 37.71 138.989 38.09C139.249 38.47 139.599 38.76 140.039 38.96C140.499 39.14 141.019 39.23 141.599 39.23C142.339 39.23 142.999 39.08 143.579 38.78C144.179 38.48 144.649 38.06 144.989 37.52C145.349 36.96 145.529 36.32 145.529 35.6L146.009 37.4C146.009 38.28 145.739 39.01 145.199 39.59C144.679 40.17 144.029 40.6 143.249 40.88C142.489 41.16 141.729 41.3 140.969 41.3C140.129 41.3 139.339 41.13 138.599 40.79C137.879 40.43 137.299 39.92 136.859 39.26C136.419 38.6 136.199 37.8 136.199 36.86C136.199 35.52 136.669 34.45 137.609 33.65C138.569 32.83 139.899 32.42 141.599 32.42C142.599 32.42 143.429 32.54 144.089 32.78C144.769 33 145.309 33.26 145.709 33.56C146.109 33.84 146.379 34.07 146.519 34.25V35.66C145.819 35.18 145.099 34.84 144.359 34.64C143.619 34.42 142.829 34.31 141.989 34.31C141.209 34.31 140.569 34.41 140.069 34.61C139.589 34.81 139.229 35.09 138.989 35.45C138.749 35.81 138.629 36.24 138.629 36.74ZM138.269 30.38L137.099 28.61C137.619 28.23 138.329 27.85 139.229 27.47C140.149 27.09 141.249 26.9 142.529 26.9C143.609 26.9 144.549 27.07 145.349 27.41C146.169 27.73 146.799 28.2 147.239 28.82C147.699 29.44 147.929 30.2 147.929 31.1V41H145.529V31.43C145.529 30.95 145.449 30.56 145.289 30.26C145.129 29.94 144.899 29.69 144.599 29.51C144.319 29.33 143.989 29.2 143.609 29.12C143.229 29.04 142.829 29 142.409 29C141.729 29 141.109 29.08 140.549 29.24C140.009 29.4 139.549 29.59 139.169 29.81C138.789 30.03 138.489 30.22 138.269 30.38Z" fill="white"/>
<path d="M154.392 27.2V41H151.992V27.2H154.392ZM158.562 29.84C158.242 29.6 157.952 29.43 157.692 29.33C157.432 29.21 157.102 29.15 156.702 29.15C156.102 29.15 155.632 29.3 155.292 29.6C154.952 29.9 154.712 30.31 154.572 30.83C154.452 31.35 154.392 31.94 154.392 32.6H153.312C153.312 31.5 153.502 30.53 153.882 29.69C154.282 28.83 154.792 28.15 155.412 27.65C156.032 27.15 156.662 26.9 157.302 26.9C157.802 26.9 158.262 26.97 158.682 27.11C159.122 27.23 159.522 27.48 159.882 27.86L158.562 29.84Z" fill="white"/>
<path fill-rule="evenodd" clip-rule="evenodd" d="M24.519 22.3743C22.4161 16.6901 19.7962 9.48299 17.814 3.94749C16.5106 4.50312 15.2379 5.15204 14.006 5.89427C16.739 8.77227 16.6887 13.3084 13.8551 16.1254C11.0216 18.9424 6.45867 18.9924 3.56374 16.2754C1.92204 18.9682 0.734125 21.8578 0 24.8352C3.97828 24.9505 7.1677 28.1928 7.1677 32.1757C7.1677 36.1586 3.97828 39.4009 0 39.5162C0.734125 42.4937 1.92204 45.3832 3.56374 48.076C6.45867 45.359 11.0216 45.409 13.8551 48.226C16.6887 51.043 16.739 55.5791 14.006 58.4571C16.7147 60.0892 19.6213 61.2702 22.6163 62C22.7322 58.045 25.9936 54.8743 30 54.8743C34.0064 54.8743 37.2678 58.045 37.3837 62C40.3787 61.2702 43.2853 60.0892 45.994 58.4571C43.261 55.5791 43.3113 51.043 46.1449 48.226C48.9784 45.409 53.5413 45.359 56.4363 48.076C58.078 45.3832 59.2659 42.4937 60 39.5162C56.0217 39.4009 52.8323 36.1586 52.8323 32.1757C52.8323 28.1928 56.0217 24.9505 60 24.8352C59.2659 21.8578 58.078 18.9682 56.4363 16.2754C53.5751 18.9606 49.0848 18.9432 46.2449 16.223C44.1394 18.5871 41.24 21.8339 38.5331 24.856C38.3723 24.6703 38.2043 24.4886 38.0292 24.3112C38.0042 24.2858 37.979 24.2606 37.9537 24.2354C37.6984 23.9816 37.4339 23.7425 37.1612 23.5182C37.1534 23.5118 37.1455 23.5054 37.1377 23.499C37.1273 23.4905 37.1169 23.482 37.1065 23.4736C39.8572 20.8488 42.913 17.9548 45.5574 15.468C43.3193 12.6412 43.4648 8.55767 45.994 5.89427C43.2706 4.25337 40.3473 3.06849 37.3352 2.33962C36.9006 5.98355 33.7823 8.80953 30 8.80953C26.2177 8.80953 23.0994 5.98355 22.6648 2.33962C21.3348 2.66146 20.022 3.07222 18.7362 3.57188C20.6569 7.7607 24.1096 15.3327 26.8606 21.4024C26.8101 21.4169 26.7598 21.4318 26.7095 21.4471C26.0559 21.6452 25.4169 21.9037 24.8014 22.2228C24.7067 22.2718 24.6126 22.3224 24.519 22.3743ZM28.0252 31.5518C28.1403 31.797 28.2717 32.0445 28.4153 32.2916C27.6479 33.5373 27.0725 34.9758 26.8602 35.7267C27.5348 35.4877 28.7212 34.8828 29.742 34.1927C30.5328 35.1756 31.3549 36.0042 31.8701 36.4389C31.9065 35.6 31.7884 34.0675 31.5206 32.6399C32.6639 31.3964 35.4677 28.2784 38.5185 24.8723C42.3376 29.2655 42.1493 35.9118 37.9537 40.0828C33.561 44.4498 26.439 44.4498 22.0463 40.0828C17.6536 35.7159 17.6536 28.6356 22.0463 24.2686C22.8023 23.5169 23.6392 22.8947 24.5292 22.4018C26.2684 27.1027 27.6521 30.7567 28.0252 31.5518ZM37.0878 23.4915C34.4236 26.0338 32.0475 28.3219 30.6114 29.7404C29.9677 28.2756 28.5523 25.1352 26.8738 21.4317C30.328 20.4418 34.1654 21.1284 37.0878 23.4915ZM30 32.5876C30.2321 32.5876 30.4202 32.4005 30.4202 32.1698C30.4202 31.9391 30.2321 31.752 30 31.752C29.7679 31.752 29.5798 31.9391 29.5798 32.1698C29.5798 32.4005 29.7679 32.5876 30 32.5876Z" fill="white"/>
<path d="M18.7233 3.54377C18.4152 3.66366 18.1086 3.78865 17.8037 3.91875C17.3713 2.71089 16.9693 1.58305 16.6099 0.568534C16.5615 0.417224 16.5227 0.0954628 16.755 0.0188989C16.9948 -0.0601415 17.1022 0.123013 17.2082 0.303812C17.2306 0.341931 17.2529 0.379945 17.2763 0.415375C17.304 0.457184 17.8557 1.6517 18.7233 3.54377Z" fill="white"/>
<path d="M46.2608 16.2051C48.0472 14.1991 49.2581 12.833 49.2872 12.7871C49.3061 12.7572 49.3274 12.7275 49.3488 12.6977C49.4502 12.556 49.5531 12.4124 49.4118 12.2432C49.2749 12.0792 49.0436 12.2101 48.945 12.296C47.9609 13.2122 46.8121 14.2881 45.5725 15.4538C45.7487 15.6748 45.9395 15.8881 46.1449 16.0923C46.1832 16.1304 46.2219 16.168 46.2608 16.2051Z" fill="white"/>
</g>
<defs>
<clipPath id="clip0_145_183">
<rect width="160" height="62" fill="white"/>
</clipPath>
</defs>
</svg>
