<svg width="24" height="24" viewBox="0 0 24 24" fill="none" xmlns="http://www.w3.org/2000/svg">
<path d="M6.98414 1C7.47293 1 7.92331 1.2651 8.1606 1.69249L9.80655 4.65742C10.0221 5.04563 10.0322 5.51518 9.8336 5.91233L8.24793 9.08374C8.24793 9.08374 8.70746 11.4462 10.6306 13.3694C12.5538 15.2925 14.9084 15.7441 14.9084 15.7441L18.0792 14.1587C18.4767 13.96 18.9466 13.9703 19.3349 14.1862L22.3082 15.8392C22.7353 16.0767 23 16.5268 23 17.0153V20.4288C23 22.1671 21.3853 23.4226 19.7383 22.8668C16.3554 21.7254 11.1044 19.5521 7.77616 16.2238C4.44793 12.8956 2.27459 7.64454 1.13315 4.26174C0.577394 2.61465 1.83291 1 3.5712 1H6.98414Z" fill="white"/>
</svg>
