<svg width="18" height="18" viewBox="0 0 18 18" fill="none" xmlns="http://www.w3.org/2000/svg">
<g clip-path="url(#clip0_3_370)">
<path d="M4.89611 0C5.29603 0 5.66452 0.216899 5.85868 0.566584L7.20536 2.99243C7.38168 3.31006 7.38999 3.69424 7.22749 4.01918L5.93013 6.61397C5.93013 6.61397 6.3061 8.54691 7.87959 10.1204C9.45313 11.6939 11.3796 12.0634 11.3796 12.0634L13.9739 10.7662C14.2991 10.6036 14.6835 10.612 15.0013 10.7887L17.434 12.1412C17.7834 12.3355 18 12.7037 18 13.1034V15.8963C18 17.3186 16.6789 18.3458 15.3313 17.891C12.5635 16.9572 8.26723 15.179 5.54413 12.4559C2.82103 9.73275 1.04284 5.43644 0.108937 2.6687C-0.345768 1.32107 0.681472 0 2.10371 0H4.89611Z" fill="white"/>
</g>
<defs>
<clipPath id="clip0_3_370">
<rect width="18" height="18" fill="white"/>
</clipPath>
</defs>
</svg>
