<svg width="18" height="18" viewBox="0 0 18 18" fill="none" xmlns="http://www.w3.org/2000/svg">
<g clip-path="url(#clip0_3_373)">
<path d="M16.0507 1.63242C16.0507 1.63242 17.6233 0.983139 17.4922 2.55998C17.4486 3.20927 17.0554 5.48177 16.7496 7.9398L15.7012 15.2211C15.7012 15.2211 15.6139 16.2878 14.8275 16.4733C14.0412 16.6588 12.8618 15.824 12.6433 15.6385C12.4686 15.4994 9.36704 13.4123 8.27491 12.392C7.96912 12.1138 7.61964 11.5572 8.31859 10.908L12.9054 6.27021C13.4296 5.71367 13.9538 4.4151 11.7696 5.99194L5.65388 10.3978C5.65388 10.3978 4.95493 10.8616 3.64444 10.4442L0.804956 9.51664C0.804956 9.51664 -0.243463 8.82098 1.54759 8.12528C5.916 5.94553 11.2891 3.7194 16.0507 1.63242Z" fill="white"/>
</g>
<defs>
<clipPath id="clip0_3_373">
<rect width="18" height="18" fill="white"/>
</clipPath>
</defs>
</svg>
